<svg version="1.1" id="Layer_1" xmlns="http://www.w3.org/2000/svg" xmlns:xlink="http://www.w3.org/1999/xlink" x="0px" y="0px"
	 width="100%" viewBox="0 0 500 500" enable-background="new 0 0 500 500" xml:space="preserve">
<path fill="#000000" opacity="1.000000" stroke="none" 
	d="
M272.000000,501.000000 
	C181.333359,501.000000 91.166710,501.000000 1.000048,501.000000 
	C1.000032,334.333405 1.000032,167.666794 1.000016,1.000138 
	C167.666565,1.000092 334.333130,1.000092 500.999756,1.000046 
	C500.999847,167.666519 500.999847,334.333038 500.999939,500.999786 
	C424.833344,501.000000 348.666656,501.000000 272.000000,501.000000 
M398.032806,138.026596 
	C398.032806,138.026596 397.869476,137.865936 397.873505,137.089935 
	C396.852875,135.467804 395.832245,133.845657 394.981018,131.545807 
	C396.932007,128.586273 398.882996,125.626747 400.833954,122.667221 
	C400.452484,122.324547 400.071014,121.981865 399.689545,121.639191 
	C398.187317,122.653069 396.685089,123.666946 394.828125,123.914993 
	C390.695892,122.876564 386.563660,121.838135 382.587708,120.838974 
	C383.018341,118.831909 383.378174,117.154778 383.921936,114.620621 
	C375.982147,117.614853 370.538971,115.640503 366.548950,109.575294 
	C363.666504,105.193748 360.467865,107.098717 357.370880,109.164963 
	C352.144104,104.505714 323.718842,103.339203 317.707428,107.420784 
	C320.468628,108.127930 323.229858,108.835068 325.991058,109.542206 
	C325.914764,109.129951 325.838470,108.717697 325.762146,108.305443 
	C328.487579,107.878098 331.858673,106.221573 333.818787,107.251198 
	C339.984528,110.490021 346.420807,110.338181 352.949982,110.571907 
	C357.384552,110.730659 362.459625,110.606796 364.686768,115.194809 
	C366.596222,119.128288 369.887054,119.558151 373.005798,119.680038 
	C377.526581,119.856712 378.660858,120.592445 378.179962,125.079102 
	C377.986206,126.886688 378.110626,128.728363 377.320312,130.811081 
	C370.381226,130.439087 363.321381,130.755661 356.526123,129.563782 
	C337.445099,126.216980 318.695496,126.625320 299.809326,131.881134 
	C298.912506,132.447220 298.015686,133.013306 296.664490,133.890594 
	C296.120300,133.960800 295.576111,134.031006 294.903259,133.380173 
	C293.593323,132.555206 292.283356,131.730255 290.033966,130.313690 
	C290.033966,133.170990 290.033966,134.631897 289.646301,136.683380 
	C286.816742,137.946609 283.987152,139.209854 280.974915,139.646454 
	C278.895294,139.117020 276.813416,138.158203 274.736603,138.169006 
	C272.253510,138.181931 269.325897,140.181137 268.481750,136.188614 
	C268.421051,135.901413 272.418732,134.261734 274.588013,134.114685 
	C277.751801,133.900192 280.235840,133.735291 280.052185,129.587921 
	C279.923920,126.691444 281.251678,125.593208 284.145905,127.017754 
	C285.155029,127.514435 286.393646,127.544868 288.536896,128.004913 
	C287.323456,125.708435 286.679596,124.489876 286.024994,123.250984 
	C287.651337,121.549103 288.973938,119.802780 290.658203,118.538162 
	C291.673065,117.776169 293.426422,117.175415 294.546509,117.510307 
	C301.462982,119.578224 304.013519,117.553070 302.941559,110.976677 
	C300.993195,110.426567 299.246948,109.933533 297.248627,109.369324 
	C294.651154,113.578011 291.402039,116.906296 286.468323,114.579788 
	C284.494659,116.907982 283.119537,119.272087 281.065155,120.497368 
	C280.455994,120.860680 278.071136,117.781921 276.241211,116.730827 
	C275.072723,116.059662 273.429230,116.215401 271.328613,115.767998 
	C270.839844,115.267548 270.351044,114.767105 270.512299,114.088013 
	C270.812897,113.751984 271.113464,113.415955 271.414032,113.079910 
	C271.184204,112.917427 270.954376,112.754944 270.724548,112.592461 
	C270.442566,113.158913 270.160614,113.725372 269.300751,114.145027 
	C268.467773,113.621910 267.634766,113.098793 266.897308,111.755089 
	C265.159302,109.875046 263.719238,107.364899 261.572266,106.349861 
	C260.271820,105.735039 257.876678,107.435616 255.142700,108.071800 
	C248.284058,107.358864 241.425842,106.085899 234.566635,106.080528 
	C226.712616,106.074371 218.857697,107.193932 210.820404,107.119156 
	C209.214417,106.752403 207.608444,106.385651 205.512497,105.827477 
	C204.681366,106.213860 203.850235,106.600243 202.832047,106.228516 
	C199.911011,106.108047 196.989990,105.987579 193.218185,105.942619 
	C189.710709,105.624313 186.203232,105.306007 182.101166,104.933739 
	C184.774185,107.290283 186.532516,108.840424 188.290848,110.390564 
	C187.879868,111.029083 187.468887,111.667610 187.057922,112.306137 
	C184.864639,111.128395 182.663010,109.965904 180.480972,108.767677 
	C178.966492,107.936035 177.493530,106.358650 175.976761,106.327049 
	C171.436935,106.232498 166.884125,106.724579 162.337494,107.005936 
	C158.735367,107.228851 155.526566,108.011116 153.529709,111.589157 
	C152.911591,112.696686 151.181198,113.161705 150.002533,113.981926 
	C144.837128,117.576553 139.210449,120.693405 134.707504,124.986694 
	C131.926788,127.637932 129.671280,130.011520 125.668053,130.023132 
	C123.322517,130.029938 122.203247,130.650177 122.584694,133.651947 
	C122.999794,136.918549 122.349030,140.373581 121.783897,143.681717 
	C121.597076,144.775284 120.202492,146.542725 119.411690,146.515274 
	C112.345276,146.270233 114.377937,151.323578 114.191238,155.087601 
	C114.113045,156.663879 114.652054,158.584167 113.937790,159.754333 
	C112.094032,162.774948 109.607803,165.395477 107.590691,168.322266 
	C106.833618,169.420746 106.398582,170.902191 106.289108,172.247482 
	C106.133003,174.165726 106.517799,176.121170 106.484566,178.057526 
	C106.392509,183.420761 106.059113,188.785751 106.185028,194.141479 
	C106.207947,195.116226 107.951050,196.050522 109.026459,197.746292 
	C109.022079,198.497681 109.017700,199.249084 108.246658,200.020432 
	C104.911644,200.747696 105.387817,203.092163 105.284302,205.749878 
	C105.025139,212.403839 108.876846,217.499954 111.973602,222.466660 
	C114.455666,226.447510 114.990257,229.662643 114.230797,233.965088 
	C113.927200,235.685028 115.759811,239.430939 116.532593,239.407227 
	C119.920609,239.303177 120.450905,241.876968 121.365181,243.759338 
	C123.135704,247.404633 124.432762,251.279877 126.230949,255.831650 
	C130.493103,256.367401 130.972061,260.767883 131.244141,265.292450 
	C132.907059,265.889587 134.441467,266.440552 136.016769,267.477966 
	C136.016769,267.477966 136.120422,267.955017 135.511200,268.504272 
	C135.623138,269.804779 135.735077,271.105286 135.764114,272.749237 
	C135.764114,272.749237 135.472885,272.949341 134.781662,272.487671 
	C129.751846,273.059601 127.875305,276.913940 130.267227,281.852783 
	C129.238342,284.029999 128.209457,286.207245 126.799461,287.733887 
	C125.680710,286.499023 124.561958,285.264160 122.694275,283.202667 
	C121.668724,288.808044 121.588120,293.118896 124.867470,297.804932 
	C124.521866,304.535828 124.176262,311.266693 123.262642,318.103455 
	C122.992470,318.446442 122.722290,318.789398 122.452133,319.132355 
	C122.977127,319.421448 123.502121,319.710541 124.490433,320.572754 
	C124.735847,322.023651 124.981262,323.474548 124.491920,325.058319 
	C123.772392,326.496826 123.052856,327.935364 122.333336,329.373901 
	C124.066452,329.856567 125.799568,330.339233 127.906548,331.361267 
	C129.062775,333.526428 130.219009,335.691589 130.750488,338.204773 
	C130.372467,339.909149 129.994431,341.613525 129.616409,343.317902 
	C130.117783,343.553192 130.619156,343.788513 131.120529,344.023804 
	C132.159760,343.179932 133.198990,342.336029 134.832336,341.842468 
	C136.475983,343.464294 138.119614,345.086151 139.041565,347.061859 
	C138.401230,348.428192 137.760895,349.794495 137.120575,351.160828 
	C137.385483,351.579407 137.650406,351.997955 137.915329,352.416534 
	C140.338715,351.764282 142.762085,351.112030 145.840149,350.738800 
	C147.892838,351.859467 149.945526,352.980133 152.014709,354.856537 
	C152.619766,360.930878 157.963043,359.486237 161.517792,360.501556 
	C162.765564,360.857971 164.594208,359.180664 167.007004,358.558411 
	C170.431320,359.063171 173.847473,359.926514 177.281509,360.004791 
	C187.183624,360.230469 197.092941,360.139618 207.100174,360.734467 
	C207.432617,361.011749 207.765060,361.289001 208.097488,361.566284 
	C208.398315,361.062225 208.699142,360.558167 209.599991,359.696411 
	C210.733215,359.537659 211.866425,359.378937 213.020157,359.923584 
	C215.831390,362.529114 218.400970,365.479858 221.511719,367.657562 
	C225.939362,370.757202 232.981155,370.243683 234.541809,377.362152 
	C234.666046,377.928833 236.433289,377.975769 237.135361,378.602295 
	C240.586349,381.681549 242.247162,386.799896 247.635712,387.742828 
	C247.898819,387.788849 247.616806,389.551514 248.084335,390.049255 
	C251.859970,394.069244 255.730011,398.002350 259.654480,401.877655 
	C260.004517,402.223267 260.943512,401.992645 261.609070,401.995087 
	C264.109039,402.004242 266.615173,401.888519 269.107513,402.026794 
	C272.353455,402.206909 274.129089,401.195038 274.075836,397.557861 
	C274.039001,395.041595 274.984589,393.239532 278.298859,393.403534 
	C279.460602,393.461029 281.229828,391.654755 281.854645,390.299744 
	C284.220673,385.168732 290.199341,383.391724 292.628693,378.359924 
	C292.830475,377.941956 294.348755,378.324005 294.971100,377.908539 
	C296.078949,377.169067 297.854126,376.041443 297.793945,375.185608 
	C297.561218,371.875916 299.511932,371.013916 301.997803,370.023834 
	C303.430328,369.453278 304.564850,368.074463 305.758270,366.977570 
	C307.592804,365.291504 309.374451,363.547089 311.154877,361.803314 
	C312.080811,360.896484 313.412476,360.083435 313.765869,358.974609 
	C314.700867,356.041138 317.505371,355.144684 319.103027,353.364136 
	C322.367004,349.726532 326.029541,346.590088 329.215668,343.115143 
	C331.127319,341.030243 332.205292,338.264679 335.334167,337.205109 
	C336.151550,336.928314 337.254486,335.876770 337.282440,335.145020 
	C337.487274,329.783447 340.678833,328.207184 345.695190,328.790680 
	C345.553619,324.195465 346.834351,321.308350 351.847290,321.660919 
	C352.480835,321.705505 353.324554,319.520538 353.978241,318.318176 
	C354.708160,316.975586 355.255310,314.435944 356.014984,314.384613 
	C361.092957,314.041412 362.125854,310.641663 362.361389,306.693054 
	C368.091919,305.454498 368.048340,305.436676 370.192719,300.191284 
	C370.526154,299.375671 371.354736,298.410034 372.143250,298.189758 
	C377.548279,296.679718 377.757874,288.064850 384.863831,288.915955 
	C385.053955,288.938690 385.599854,288.074951 385.552246,287.675537 
	C385.087769,283.777496 384.532166,279.890289 384.058533,275.363159 
	C384.702820,274.581940 385.347107,273.800690 386.475677,273.543457 
	C387.113403,273.675079 387.814209,274.048340 388.379150,273.900970 
	C394.005402,272.433136 395.069183,264.610168 401.615387,264.310944 
	C401.752716,264.304626 401.937836,263.411011 401.949585,262.927673 
	C401.998108,260.932098 402.160614,258.917877 401.962677,256.942444 
	C401.596191,253.285522 402.796692,251.109192 406.500580,249.796692 
	C408.026611,249.255920 409.343292,246.878296 409.863525,245.078430 
	C410.440643,243.081604 410.078003,240.786926 409.981567,238.628311 
	C409.861664,235.944412 410.560883,234.227188 413.659088,233.841385 
	C417.021820,233.422592 418.122467,231.192764 418.076691,227.800613 
	C418.003021,222.341202 418.772858,216.858612 418.514679,211.417679 
	C418.348541,207.915573 416.980194,204.470490 416.045502,200.172592 
	C416.110748,196.127213 416.176025,192.081833 416.600830,187.096481 
	C416.196503,181.682831 416.595886,176.044922 415.165283,170.917618 
	C413.689148,165.627136 412.670135,160.674820 414.866180,154.719131 
	C409.607849,155.297028 406.624390,152.905289 407.131073,148.252228 
	C407.833374,141.802475 404.632477,139.575531 398.992157,138.988907 
	C398.992157,138.988907 398.932770,138.930237 398.806580,138.572189 
	C398.673737,138.330643 398.469666,138.202927 398.032806,138.026596 
M311.273804,109.941200 
	C311.483185,108.840477 312.252350,107.213013 311.801361,106.733704 
	C310.179962,105.010590 308.489319,106.159683 305.553711,110.962715 
	C307.356537,110.617409 308.936279,110.314835 311.273804,109.941200 
M314.415375,108.483391 
	C314.415375,108.483391 314.523468,108.419815 314.415375,108.483391 
z"/>
<path fill="#000000" opacity="1.000000" stroke="none" 
	d="
M416.150696,200.999847 
	C416.980194,204.470490 418.348541,207.915573 418.514679,211.417679 
	C418.772858,216.858612 418.003021,222.341202 418.076691,227.800613 
	C418.122467,231.192764 417.021820,233.422592 413.659088,233.841385 
	C410.560883,234.227188 409.861664,235.944412 409.981567,238.628311 
	C410.078003,240.786926 410.440643,243.081604 409.863525,245.078430 
	C409.343292,246.878296 408.026611,249.255920 406.500580,249.796692 
	C402.796692,251.109192 401.596191,253.285522 401.962677,256.942444 
	C402.160614,258.917877 401.998108,260.932098 401.949585,262.927673 
	C401.937836,263.411011 401.752716,264.304626 401.615387,264.310944 
	C395.069183,264.610168 394.005402,272.433136 388.379150,273.900970 
	C387.814209,274.048340 387.113403,273.675079 386.376801,272.962402 
	C387.209229,270.518799 388.140564,268.656281 389.071869,266.793793 
	C388.602448,266.501617 388.133026,266.209442 387.663635,265.917267 
	C384.859131,269.434998 382.072266,272.966980 379.246155,276.467285 
	C374.610291,282.209137 369.621643,287.702576 365.416290,293.742523 
	C362.726044,297.606384 356.688049,298.941528 356.734741,305.074097 
	C356.277191,305.389801 356.081940,305.633148 355.637756,305.987000 
	C354.854675,306.668732 354.380188,307.287872 353.545990,307.938293 
	C350.538940,310.824158 347.891632,313.678802 345.146484,316.757477 
	C345.048676,316.981537 344.610901,316.763702 344.640930,316.985626 
	C344.375336,317.450256 344.079742,317.692963 344.219116,317.578522 
	C344.175751,317.680817 344.357330,317.252350 344.894470,316.638641 
	C345.455597,316.618866 345.661163,316.784332 346.186707,316.840210 
	C349.040009,313.857025 351.573334,310.983429 354.410217,308.032013 
	C355.170105,307.322174 355.626465,306.690155 356.282684,305.934387 
	C356.730469,305.608337 356.920044,305.361237 357.394379,305.012878 
	C361.830627,301.085785 366.205170,297.466827 369.947327,293.282349 
	C374.891693,287.753448 379.340576,281.781494 384.002441,276.000000 
	C384.532166,279.890289 385.087769,283.777496 385.552246,287.675537 
	C385.599854,288.074951 385.053955,288.938690 384.863831,288.915955 
	C377.757874,288.064850 377.548279,296.679718 372.143250,298.189758 
	C371.354736,298.410034 370.526154,299.375671 370.192719,300.191284 
	C368.048340,305.436676 368.091919,305.454498 362.361389,306.693054 
	C362.125854,310.641663 361.092957,314.041412 356.014984,314.384613 
	C355.255310,314.435944 354.708160,316.975586 353.978241,318.318176 
	C353.324554,319.520538 352.480835,321.705505 351.847290,321.660919 
	C346.834351,321.308350 345.553619,324.195465 345.695190,328.790680 
	C340.678833,328.207184 337.487274,329.783447 337.282440,335.145020 
	C337.254486,335.876770 336.151550,336.928314 335.334167,337.205109 
	C332.205292,338.264679 331.127319,341.030243 329.215668,343.115143 
	C326.029541,346.590088 322.367004,349.726532 319.103027,353.364136 
	C317.505371,355.144684 314.700867,356.041138 313.765869,358.974609 
	C313.412476,360.083435 312.080811,360.896484 311.154877,361.803314 
	C309.374451,363.547089 307.592804,365.291504 305.758270,366.977570 
	C304.564850,368.074463 303.430328,369.453278 301.997803,370.023834 
	C299.511932,371.013916 297.561218,371.875916 297.793945,375.185608 
	C297.854126,376.041443 296.078949,377.169067 294.971100,377.908539 
	C294.348755,378.324005 292.830475,377.941956 292.628693,378.359924 
	C290.199341,383.391724 284.220673,385.168732 281.854645,390.299744 
	C281.229828,391.654755 279.460602,393.461029 278.298859,393.403534 
	C274.984589,393.239532 274.039001,395.041595 274.075836,397.557861 
	C274.129089,401.195038 272.353455,402.206909 269.107513,402.026794 
	C266.615173,401.888519 264.109039,402.004242 261.609070,401.995087 
	C260.943512,401.992645 260.004517,402.223267 259.654480,401.877655 
	C255.730011,398.002350 251.859970,394.069244 248.084335,390.049255 
	C247.616806,389.551514 247.898819,387.788849 247.635712,387.742828 
	C242.247162,386.799896 240.586349,381.681549 237.135361,378.602295 
	C236.433289,377.975769 234.666046,377.928833 234.541809,377.362152 
	C232.981155,370.243683 225.939362,370.757202 221.511719,367.657562 
	C218.400970,365.479858 215.831390,362.529114 213.401154,359.468689 
	C216.187119,358.672913 218.592072,358.332062 221.131592,358.302734 
	C223.100983,360.453644 224.935822,362.293091 226.770676,364.132538 
	C227.202866,363.806976 227.635056,363.481445 228.067245,363.155884 
	C227.010590,361.013519 225.953934,358.871124 225.164062,356.475189 
	C230.127045,354.665802 234.902023,353.312103 239.505203,351.517639 
	C255.599213,345.243713 269.516327,335.401672 283.050232,324.952881 
	C283.801117,324.442169 284.375671,323.657135 285.084351,322.567749 
	C296.266510,310.313507 308.234894,299.074707 318.146515,286.246735 
	C332.945374,267.093445 346.302948,246.826035 360.257935,227.021484 
	C365.913116,218.995834 371.720917,211.272842 383.680847,213.426987 
	C381.562073,212.090332 379.518494,211.018723 377.477905,211.024414 
	C364.689301,211.060043 351.897919,211.210541 339.114044,211.562912 
	C321.959137,212.035751 304.554291,214.447647 288.959961,203.719986 
	C286.984436,202.431702 285.080933,201.509918 283.326996,200.660583 
	C282.588196,201.725876 282.281464,201.973450 282.235992,202.262177 
	C281.018616,209.990295 281.022522,210.051834 273.006958,209.972366 
	C269.417328,209.936798 265.913483,209.532379 265.398651,214.655716 
	C265.313599,215.502167 263.560486,216.543884 262.408417,216.844498 
	C260.035583,217.463608 257.558502,217.798141 255.105057,217.963470 
	C252.155289,218.162277 250.052505,218.793015 249.854446,222.424805 
	C249.681931,225.588043 247.543900,226.537354 244.552124,225.716827 
	C243.284576,225.369186 241.978882,225.160568 240.778198,224.537811 
	C243.300690,217.269638 247.756134,213.435333 255.055923,210.739517 
	C282.115601,200.746384 302.490845,182.625778 315.376404,156.634567 
	C317.865479,151.613892 319.015564,145.929382 320.783325,140.551102 
	C320.263580,140.113693 319.743805,139.676285 319.224030,139.238876 
	C316.154480,140.524170 313.084930,141.809464 309.668213,143.128311 
	C294.870728,151.427551 282.779877,162.466904 271.634277,175.117096 
	C254.661057,194.342514 240.522644,214.960678 231.961945,239.388214 
	C235.633286,240.004684 238.951691,240.271851 242.103836,241.141556 
	C255.475464,244.830872 268.928833,248.554337 269.782776,266.145935 
	C270.491577,266.087433 271.200409,266.028992 272.281921,266.047699 
	C273.113647,267.081268 273.411957,268.171539 274.070404,268.961731 
	C274.988556,270.063568 276.061035,271.419434 277.295776,271.716095 
	C277.929077,271.868256 279.876251,269.913147 279.827057,268.984741 
	C279.560944,263.965851 282.628052,263.676208 286.246948,264.014832 
	C289.662292,264.334381 293.066132,264.776825 296.311035,265.473877 
	C290.080750,270.662720 284.296722,275.959290 277.874054,280.313812 
	C270.458618,285.341370 262.329437,289.102264 253.005066,288.671448 
	C255.082153,280.608765 260.734344,279.388336 267.629517,279.866577 
	C268.986847,279.960754 270.460693,278.375031 271.880798,277.564056 
	C270.754242,276.397034 269.785736,274.485840 268.470642,274.206573 
	C264.934082,273.455505 263.838776,271.449036 263.985748,268.186066 
	C264.067902,266.362671 263.876465,264.522186 264.028381,262.707794 
	C264.265411,259.877167 263.699402,257.965576 260.347260,257.554260 
	C257.732971,257.233521 255.739807,256.012726 255.845642,252.680725 
	C255.872681,251.829468 254.118378,250.170700 253.274948,250.228638 
	C252.166687,250.304764 250.563293,251.510422 250.193619,252.582352 
	C248.438492,257.671814 245.398010,259.486786 240.096817,258.147766 
	C233.322922,256.436768 232.803848,256.833282 233.032745,264.019104 
	C233.084686,265.649536 233.897766,267.307159 233.724747,268.882446 
	C233.379700,272.024170 232.593811,275.117523 231.675964,277.978546 
	C227.786835,268.242157 229.488342,258.822510 231.641785,248.569977 
	C237.125870,249.692673 242.397736,250.771912 247.669601,251.851151 
	C247.792984,251.334213 247.916367,250.817291 248.039749,250.300354 
	C242.272980,248.799255 236.506195,247.298172 230.234467,245.665634 
	C227.507767,254.848694 225.856903,263.567108 227.578979,272.531067 
	C229.917114,284.701782 235.588943,290.096802 247.861542,291.460052 
	C257.023865,292.477875 265.902771,290.220581 273.552155,285.374298 
	C282.333282,279.811035 290.395966,273.113739 299.190918,266.931885 
	C303.016113,267.366455 303.178589,265.234222 303.023621,262.452942 
	C307.682465,257.066376 312.220978,251.985443 317.129333,246.923050 
	C318.146362,246.654831 318.793579,246.368057 319.440796,246.081299 
	C319.064667,245.656540 318.688538,245.231796 318.454224,244.491730 
	C319.773712,242.785294 320.951385,241.394165 322.455475,239.998627 
	C323.120758,239.304260 323.459625,238.614319 323.905731,237.597046 
	C328.794586,230.688843 333.834320,224.275894 338.265198,217.466782 
	C341.120422,213.079041 344.598816,212.422592 349.562317,213.620178 
	C348.887482,215.046875 348.519989,216.309860 347.786957,217.303009 
	C325.016174,248.152634 302.599823,279.276031 279.225708,309.662537 
	C269.214691,322.676971 256.856354,333.757874 241.996552,342.114014 
	C239.125259,341.942810 236.567368,341.634155 236.918320,345.670227 
	C231.147324,348.281982 225.614624,350.658539 219.756195,352.888916 
	C216.289001,350.826447 213.147568,348.910156 210.001587,346.637939 
	C209.523788,345.576019 209.050537,344.870026 208.577286,344.164032 
	C208.179871,344.547607 207.782455,344.931183 207.385025,345.314728 
	C208.254456,345.878510 209.123871,346.442291 210.034546,347.346680 
	C212.046646,349.999695 214.017487,352.312103 215.613953,354.782349 
	C198.732101,359.689178 182.043106,359.738922 165.507385,355.711090 
	C148.822830,351.647003 135.385086,342.765045 130.356339,325.387909 
	C125.020111,306.948212 128.813614,289.649261 139.881363,273.973206 
	C142.095413,276.057068 143.971710,277.993713 145.848022,279.930389 
	C146.285461,279.547852 146.722900,279.165314 147.160339,278.782806 
	C145.405716,276.108643 143.651108,273.434479 141.968445,270.437073 
	C149.079575,261.385651 157.399353,254.296036 168.144958,250.159607 
	C170.460312,254.172119 170.863174,256.857117 165.133728,257.349976 
	C163.487930,257.491547 162.015747,260.057648 160.533127,261.579498 
	C158.942963,263.211731 157.020828,264.705750 155.994766,266.655426 
	C154.712860,269.091187 153.563995,271.923157 153.533508,274.597504 
	C153.504318,277.155853 154.033203,280.479584 158.306244,280.046387 
	C161.138184,279.759247 162.116684,281.537415 162.004028,284.124329 
	C161.884460,286.870270 163.244659,288.079681 165.946259,288.007355 
	C169.244843,287.918976 170.397812,289.397186 169.673798,292.720642 
	C169.017593,295.732727 170.396652,297.040192 173.545776,296.309021 
	C176.858322,295.539886 178.573517,296.920868 177.699554,300.268799 
	C176.847992,303.530853 178.623642,304.174652 181.070770,305.078156 
	C182.853012,305.736176 185.671402,307.311096 185.658447,308.450287 
	C185.607971,312.893646 187.459900,314.314941 191.663193,313.308136 
	C191.167908,316.592865 190.367905,319.832428 194.767609,319.943329 
	C199.826416,320.070770 202.466461,322.401733 202.352264,327.059601 
	C204.721191,328.060242 207.883194,328.436157 208.363449,329.774445 
	C209.951981,334.201080 214.067307,336.438019 216.193237,339.709656 
	C219.887360,345.394653 224.335297,343.771606 228.790451,343.791260 
	C229.852036,343.795929 231.779053,341.609528 231.829254,340.371002 
	C231.977600,336.711273 233.765335,335.841278 236.955124,335.969299 
	C240.407074,336.107880 243.868881,336.000702 247.664337,336.000702 
	C248.036499,331.598694 248.553223,327.655884 253.915619,327.751221 
	C254.508011,327.761810 255.654083,326.749634 255.637939,326.240540 
	C255.463852,320.752563 259.139526,319.747253 262.258514,319.663666 
	C264.089294,316.626953 265.111053,312.805695 266.923401,312.384277 
	C270.324585,311.593414 270.645508,309.425568 272.329620,307.307373 
	C275.453796,303.377838 279.046417,298.361786 283.017395,296.611969 
	C287.680817,294.557037 288.656525,293.312744 287.254822,289.012695 
	C286.935822,288.034027 287.723328,286.739929 287.579559,285.646545 
	C287.428070,284.494629 286.771057,283.409210 286.334900,282.294769 
	C285.187714,282.763000 283.221008,283.010132 283.025391,283.735107 
	C281.683441,288.708618 278.490997,290.606293 273.572144,290.420074 
	C272.936157,290.395996 272.301453,291.421051 271.600189,291.852997 
	C268.241394,293.921722 265.019257,297.298798 261.453644,297.721130 
	C253.814178,298.625977 245.993011,297.973663 238.246460,298.008789 
	C235.025909,298.023376 232.602829,296.881256 232.104919,293.478882 
	C231.647705,290.354675 230.106216,289.938934 227.227737,290.277802 
	C224.335953,290.618225 220.758408,290.978577 218.544479,289.610199 
	C216.269836,288.204315 215.724121,283.052094 213.634979,282.496216 
	C209.519058,281.400970 208.043625,279.511292 208.005310,275.709198 
	C207.988541,274.043671 207.936859,272.374939 208.013474,270.712860 
	C208.134644,268.083923 207.510971,266.416626 204.447647,265.737549 
	C203.075684,265.433411 202.121048,263.200134 201.000275,261.823395 
	C199.984894,260.576019 199.140396,258.391785 197.976990,258.213959 
	C194.639404,257.703796 190.992233,257.305817 187.812439,258.156281 
	C183.744904,259.244171 180.339691,258.449188 177.960068,255.666931 
	C175.995056,253.369415 175.272888,250.008911 174.308609,246.904739 
	C185.033173,244.323715 195.449127,241.957397 205.997772,239.882233 
	C206.682678,240.450424 207.234879,240.727463 207.836151,241.401642 
	C207.645218,244.190933 208.133408,246.528488 204.273560,247.049667 
	C198.090195,247.884613 191.994202,249.507843 185.943787,251.109528 
	C183.830414,251.669006 181.960968,253.149872 179.980133,254.209961 
	C180.111954,254.403442 180.243790,254.596924 180.375626,254.790405 
	C189.221542,252.555878 198.067444,250.321335 206.980545,248.069824 
	C211.175446,271.032806 214.400742,278.092499 221.861465,281.384094 
	C218.670303,267.276337 218.662567,259.652527 221.679642,247.550461 
	C227.264236,225.149368 238.297791,205.420609 251.851135,187.049652 
	C266.883575,166.673889 284.186890,148.653702 307.039948,136.787460 
	C320.034546,130.040131 333.659912,128.053116 348.059204,131.460709 
	C348.802582,131.659195 349.483795,131.553925 350.549072,131.531219 
	C362.607910,134.767349 367.550079,140.414566 366.661133,149.469315 
	C365.678192,159.481216 363.004242,168.967957 358.162170,177.822159 
	C357.595306,178.858627 357.310211,180.049194 356.894501,181.168335 
	C357.278137,181.423630 357.661774,181.678925 358.045441,181.934235 
	C359.048279,180.849243 360.174438,179.853500 361.034668,178.665253 
	C368.539948,168.298065 375.955536,157.865753 383.488983,147.519211 
	C386.791260,142.983841 390.305237,138.602600 393.842682,134.516632 
	C395.264679,135.876572 396.567078,136.871262 397.869476,137.865936 
	C397.869476,137.865936 398.032806,138.026596 398.165955,138.285278 
	C398.458282,138.757874 398.669495,138.886627 398.932770,138.930237 
	C398.932770,138.930237 398.992157,138.988907 399.043610,139.383469 
	C402.246979,149.743057 409.768188,157.811371 411.558380,168.355148 
	C412.609558,174.546356 413.496674,180.765411 414.420898,186.958710 
	C414.384216,186.945511 414.396576,187.101624 414.272522,187.659653 
	C414.220734,190.101135 414.292999,191.984589 414.507660,194.257965 
	C413.627472,201.760803 412.604889,208.873718 411.414551,216.370743 
	C410.998871,217.992813 410.918488,219.294510 410.475494,220.458191 
	C407.855804,227.339966 405.266174,234.237381 402.428986,241.030365 
	C400.983887,244.490250 399.185089,247.826279 397.286926,251.066406 
	C395.341949,254.386414 392.966217,257.453857 391.017303,260.771820 
	C390.306427,261.981995 390.281219,263.594940 389.943207,265.024139 
	C390.462372,265.233673 390.981506,265.443207 391.500671,265.652710 
	C394.814972,260.082611 398.117676,254.505554 401.446075,248.943863 
	C407.500549,238.826904 411.332306,227.868347 413.770294,216.008835 
	C414.533478,210.747849 415.342072,205.873840 416.150696,200.999847 
M197.672775,335.098938 
	C197.801926,335.281494 197.974609,335.401276 198.426636,335.920624 
	C198.709595,336.117920 198.992554,336.315247 199.584686,337.000488 
	C199.885788,337.236969 200.186890,337.473419 200.739182,338.114746 
	C200.924835,338.392273 201.179001,338.573944 201.946030,338.866913 
	C202.022934,338.520996 202.099854,338.175049 202.130219,337.295685 
	C201.837845,337.112396 201.545471,336.929077 201.091812,336.256073 
	C200.792603,336.106384 200.493393,335.956696 200.061813,335.307922 
	C199.776932,335.136200 199.492050,334.964478 199.066742,334.297363 
	C198.780182,334.129456 198.493622,333.961517 198.062103,333.300690 
	C197.774033,333.134155 197.485977,332.967621 197.059357,332.303375 
	C196.770065,332.138489 196.480789,331.973602 196.037521,331.319916 
	C195.748383,331.156860 195.459244,330.993774 195.026108,330.338501 
	C194.741730,330.168213 194.457336,329.997955 194.038498,329.328033 
	C193.750214,329.160736 193.461914,328.993439 193.015747,328.341095 
	C192.727478,328.177338 192.439209,328.013580 192.016342,327.351807 
	C191.729874,327.182281 191.443390,327.012756 190.734299,326.124756 
	C190.349915,326.237183 189.965530,326.349640 189.581161,326.462097 
	C189.900406,326.944427 190.219650,327.426788 190.769531,328.333923 
	C190.927628,328.648895 191.181198,328.830872 191.783112,329.303436 
	C191.937698,329.626221 192.190842,329.820862 192.778290,330.286285 
	C192.935287,330.580780 193.177826,330.758667 193.774155,331.257721 
	C194.033829,331.465454 194.293503,331.673218 194.794815,332.265808 
	C194.950439,332.551392 195.187286,332.728180 195.759949,333.204224 
	C195.925705,333.501160 196.171982,333.696655 196.770416,334.208130 
	C196.938797,334.520203 197.194733,334.720306 197.672775,335.098938 
M332.711670,330.080719 
	C332.890808,329.803284 333.069946,329.525879 333.802155,329.048309 
	C334.286011,328.450287 334.769897,327.852295 335.744659,327.108490 
	C335.916473,326.825012 336.088318,326.541565 336.874817,326.004486 
	C338.770386,324.443604 340.665955,322.882751 342.561554,321.321869 
	C342.058655,320.817963 341.555786,320.314026 341.052887,319.810120 
	C339.073517,321.747742 337.094147,323.685333 334.867157,325.743591 
	C334.709747,325.854797 334.607758,326.003937 333.986115,326.574615 
	C333.360718,327.239899 332.735321,327.905182 331.698029,328.847687 
	C331.367706,328.997864 331.172607,329.251892 330.551422,330.120056 
	C331.107330,330.153656 331.663208,330.187225 332.711670,330.080719 
M179.884232,317.045044 
	C179.884232,317.045044 179.875610,317.103546 180.131607,317.804657 
	C180.702515,318.259308 181.273407,318.713928 182.143463,319.862640 
	C182.732468,320.318665 183.321472,320.774658 184.463058,321.412781 
	C184.351822,320.899994 184.240585,320.387177 183.958679,319.377686 
	C183.544571,319.057861 183.130463,318.738068 182.388992,317.948242 
	C181.966690,317.589630 181.544388,317.230988 180.982239,316.381714 
	C180.704575,316.205597 180.426895,316.029480 180.003922,315.362244 
	C179.723831,315.187286 179.443726,315.012360 179.019547,314.345581 
	C178.737701,314.172302 178.455856,313.999023 178.027451,313.332703 
	C177.740540,313.166138 177.453629,312.999603 177.016953,312.343048 
	C176.727722,312.179169 176.438477,312.015320 176.020309,311.352570 
	C175.741852,311.173615 175.463394,310.994659 175.036606,310.321960 
	C174.745300,310.160339 174.453995,309.998718 174.025894,309.338165 
	C173.736938,309.172699 173.447983,309.007233 172.979385,308.260406 
	C172.653458,308.031067 172.327515,307.801727 171.885010,306.899658 
	C170.678314,305.874146 169.471619,304.848633 168.264923,303.823120 
	C167.850662,304.392975 167.436401,304.962830 167.022141,305.532684 
	C168.363007,306.359711 169.703873,307.186707 171.195496,308.574524 
	C171.627289,308.959656 172.059097,309.344788 172.747620,310.134308 
	C172.924988,310.416260 173.170242,310.613953 173.746811,311.158020 
	C173.999390,311.371094 174.251968,311.584167 174.772095,312.222443 
	C175.021896,312.434784 175.271683,312.647125 175.770767,313.275574 
	C175.926163,313.587891 176.174026,313.782410 176.770859,314.298065 
	C177.029572,314.501251 177.288300,314.704437 177.787140,315.327179 
	C177.933990,315.645355 178.179031,315.839874 178.848618,316.442444 
	C179.182785,316.660828 179.516953,316.879242 179.884232,317.045044 
M188.333969,325.449097 
	C188.271652,324.918182 188.209351,324.387268 187.644409,323.112061 
	C187.290634,323.256714 186.936859,323.401398 186.583099,323.546082 
	C186.979492,324.073608 187.375885,324.601166 188.333969,325.449097 
M282.803741,377.840546 
	C283.001953,377.561768 283.200165,377.282990 284.034302,376.673065 
	C288.335022,372.063538 292.635742,367.454010 297.609650,362.762634 
	C299.255829,361.476776 300.902039,360.190948 303.140320,358.541809 
	C306.120636,355.718811 309.100952,352.895782 312.081299,350.072784 
	C311.672913,349.639130 311.264526,349.205475 310.856110,348.771820 
	C307.834167,351.771210 304.812225,354.770599 301.165558,358.007263 
	C299.792999,359.658081 298.420441,361.308899 296.390808,363.198730 
	C291.858063,367.396729 287.325348,371.594727 282.305084,375.941193 
	C282.128906,376.220276 281.952728,376.499359 281.293152,376.936615 
	C281.122375,377.218231 280.951599,377.499878 280.268066,377.918335 
	C280.022339,378.533997 279.776611,379.149658 278.806122,380.056458 
	C274.066895,383.564880 269.327667,387.073303 263.937256,391.063782 
	C262.158051,390.350555 258.978668,389.076019 255.799255,387.801483 
	C255.488113,388.281250 255.176971,388.761017 254.865829,389.240784 
	C256.982178,391.419647 258.977570,393.735291 261.246552,395.741577 
	C263.888000,398.077240 265.844055,396.860992 267.809387,394.357910 
	C270.616302,390.782990 273.826477,387.526733 276.815002,384.091370 
	C277.947327,382.789764 278.942383,381.368774 280.604065,379.816254 
	C281.025818,379.354645 281.447571,378.893005 282.047028,378.319580 
	C282.047028,378.319580 282.311035,377.995544 282.803741,377.840546 
M319.926331,342.572601 
	C320.164673,342.339355 320.356964,342.072876 320.913635,341.596863 
	C321.129456,341.387360 321.304657,341.148102 321.895294,340.694061 
	C322.119110,340.451019 322.303467,340.181030 323.108154,339.378906 
	C323.143036,338.970856 323.177887,338.562775 323.212769,338.154724 
	C322.747772,338.376068 322.282806,338.597412 321.322662,338.971497 
	C321.168365,339.269257 321.014038,339.566986 320.374359,340.020966 
	C320.206818,340.304871 320.039276,340.588776 319.359009,340.983490 
	C319.184906,341.268799 319.010773,341.554108 318.348816,341.994385 
	C318.188385,342.284485 318.027954,342.574615 317.551270,342.859344 
	C317.143555,343.041382 316.735809,343.223389 315.809845,344.155334 
	C314.869324,345.394043 313.928772,346.632751 312.988251,347.871429 
	C313.445435,348.219666 313.902618,348.567871 314.359802,348.916077 
	C315.240784,347.651642 316.121765,346.387177 317.539490,344.846375 
	C317.939789,344.398438 318.340057,343.950500 319.063812,343.352081 
	C319.266296,343.209442 319.404480,343.019928 319.926331,342.572601 
M241.001083,375.258514 
	C239.133530,370.270599 235.418777,367.314972 230.978363,365.157684 
	C230.539261,365.639404 230.100143,366.121124 229.661026,366.602844 
	C233.436600,369.739197 237.212158,372.875580 241.115707,376.698608 
	C244.705261,380.088837 248.294815,383.479065 252.546890,387.495026 
	C251.685837,379.322235 246.608078,377.358887 241.001083,375.258514 
M163.472458,297.988434 
	C162.670166,297.240753 161.759811,296.579315 161.083435,295.731201 
	C157.176941,290.832886 153.325699,285.890533 148.936829,280.302338 
	C148.402878,285.615936 160.293015,299.765717 166.724731,301.714783 
	C165.485321,300.000427 164.832596,299.097534 163.472458,297.988434 
M329.474823,333.081970 
	C329.734436,332.494690 329.994049,331.907379 330.253632,331.320099 
	C329.693298,331.759979 329.132935,332.199829 329.474823,333.081970 
M326.000000,335.500000 
	C326.200012,335.633331 326.399994,335.766663 326.600006,335.899994 
	C326.566681,335.600006 326.533356,335.299988 326.000000,335.500000 
M324.511536,336.023102 
	C324.380951,336.218079 324.250366,336.413055 324.119751,336.608032 
	C324.412933,336.576263 324.706116,336.544495 324.511536,336.023102 
M253.420151,388.483459 
	C253.420151,388.483459 253.522247,388.424194 253.420151,388.483459 
M186.000000,322.500000 
	C185.800003,322.366669 185.600006,322.233337 185.399994,322.100006 
	C185.433334,322.399994 185.466675,322.700012 186.000000,322.500000 
M327.504669,333.999390 
	C327.538879,333.700653 327.573059,333.401886 327.607239,333.103149 
	C327.409454,333.235291 327.211670,333.367462 327.504669,333.999390 
z"/>
<path fill="#040404" opacity="1.000000" stroke="none" 
	d="
M271.998718,116.000397 
	C273.429230,116.215401 275.072723,116.059662 276.241211,116.730827 
	C278.071136,117.781921 280.455994,120.860680 281.065155,120.497368 
	C283.119537,119.272087 284.494659,116.907982 286.468323,114.579788 
	C291.402039,116.906296 294.651154,113.578011 297.248627,109.369324 
	C299.246948,109.933533 300.993195,110.426567 302.941559,110.976677 
	C304.013519,117.553070 301.462982,119.578224 294.546509,117.510307 
	C293.426422,117.175415 291.673065,117.776169 290.658203,118.538162 
	C288.973938,119.802780 287.651337,121.549103 286.024994,123.250984 
	C286.679596,124.489876 287.323456,125.708435 288.536896,128.004913 
	C286.393646,127.544868 285.155029,127.514435 284.145905,127.017754 
	C281.251678,125.593208 279.923920,126.691444 280.052185,129.587921 
	C280.235840,133.735291 277.751801,133.900192 274.588013,134.114685 
	C272.418732,134.261734 268.421051,135.901413 268.481750,136.188614 
	C269.325897,140.181137 272.253510,138.181931 274.736603,138.169006 
	C276.813416,138.158203 278.895294,139.117020 280.820801,140.280731 
	C249.780167,157.750732 227.912231,182.723572 213.676208,216.187012 
	C203.511383,214.292419 193.035385,213.286880 183.150345,210.315445 
	C156.127960,202.192566 149.064987,178.038269 157.174286,155.748596 
	C162.873123,140.084473 174.244003,129.124496 188.310410,120.646065 
	C198.980652,114.214645 210.639755,110.748863 222.814316,109.093742 
	C242.437881,106.425941 261.249725,107.325798 276.585236,123.088448 
	C275.056396,120.725761 273.527557,118.363083 271.998718,116.000397 
z"/>
<path fill="#F7F7F7" opacity="1.000000" stroke="none" 
	d="
M271.663666,115.884201 
	C273.527557,118.363083 275.056396,120.725761 276.585236,123.088448 
	C261.249725,107.325798 242.437881,106.425941 222.814316,109.093742 
	C210.639755,110.748863 198.980652,114.214645 188.310410,120.646065 
	C174.244003,129.124496 162.873123,140.084473 157.174286,155.748596 
	C149.064987,178.038269 156.127960,202.192566 183.150345,210.315445 
	C193.035385,213.286880 203.511383,214.292419 213.676208,216.187012 
	C227.912231,182.723572 249.780167,157.750732 280.912109,140.694061 
	C283.987152,139.209854 286.816742,137.946609 290.189636,136.365723 
	C292.165955,135.399109 293.598938,134.750168 295.031921,134.101196 
	C295.576111,134.031006 296.120300,133.960800 297.209412,133.661316 
	C298.559906,133.140503 299.365509,132.848969 300.171112,132.557434 
	C318.695496,126.625320 337.445099,126.216980 356.526123,129.563782 
	C363.321381,130.755661 370.381226,130.439087 378.135620,130.733063 
	C384.361603,128.663635 389.772217,126.672234 395.182861,124.680824 
	C396.685089,123.666946 398.187317,122.653069 399.689545,121.639191 
	C400.071014,121.981865 400.452484,122.324547 400.833954,122.667221 
	C398.882996,125.626747 396.932007,128.586273 394.695160,132.002960 
	C394.180573,133.023880 393.951843,133.587631 393.723083,134.151382 
	C390.305237,138.602600 386.791260,142.983841 383.488983,147.519211 
	C375.955536,157.865753 368.539948,168.298065 361.034668,178.665253 
	C360.174438,179.853500 359.048279,180.849243 358.045441,181.934235 
	C357.661774,181.678925 357.278137,181.423630 356.894501,181.168335 
	C357.310211,180.049194 357.595306,178.858627 358.162170,177.822159 
	C363.004242,168.967957 365.678192,159.481216 366.661133,149.469315 
	C367.550079,140.414566 362.607910,134.767349 350.310608,131.374512 
	C349.124359,131.142456 348.560699,131.149704 347.997009,131.156967 
	C333.659912,128.053116 320.034546,130.040131 307.039948,136.787460 
	C284.186890,148.653702 266.883575,166.673889 251.851135,187.049652 
	C238.297791,205.420609 227.264236,225.149368 221.679642,247.550461 
	C218.662567,259.652527 218.670303,267.276337 221.861465,281.384094 
	C214.400742,278.092499 211.175446,271.032806 206.980545,248.069824 
	C198.067444,250.321335 189.221542,252.555878 180.375626,254.790405 
	C180.243790,254.596924 180.111954,254.403442 179.980133,254.209961 
	C181.960968,253.149872 183.830414,251.669006 185.943787,251.109528 
	C191.994202,249.507843 198.090195,247.884613 204.273560,247.049667 
	C208.133408,246.528488 207.645218,244.190933 207.919632,241.113129 
	C207.257706,240.148697 206.561386,239.869888 205.865067,239.591095 
	C195.449127,241.957397 185.033173,244.323715 173.957199,246.893417 
	C171.482910,248.044022 169.668671,248.991241 167.854416,249.938461 
	C157.399353,254.296036 149.079575,261.385651 141.671173,270.610260 
	C140.715820,272.013123 140.129715,272.919556 139.543625,273.825989 
	C128.813614,289.649261 125.020111,306.948212 130.356339,325.387909 
	C135.385086,342.765045 148.822830,351.647003 165.507385,355.711090 
	C182.043106,359.738922 198.732101,359.689178 215.935913,354.704620 
	C217.782135,353.991058 218.932037,353.513092 220.081924,353.035095 
	C225.614624,350.658539 231.147324,348.281982 237.251190,345.555878 
	C239.363708,344.189148 240.905090,343.171997 242.446472,342.154846 
	C256.856354,333.757874 269.214691,322.676971 279.225708,309.662537 
	C302.599823,279.276031 325.016174,248.152634 347.786957,217.303009 
	C348.519989,216.309860 348.887482,215.046875 349.562317,213.620178 
	C344.598816,212.422592 341.120422,213.079041 338.265198,217.466782 
	C333.834320,224.275894 328.794586,230.688843 323.643005,237.701797 
	C322.891754,238.756927 322.510406,239.379990 322.129059,240.003052 
	C320.951385,241.394165 319.773712,242.785294 318.236420,244.647079 
	C317.504364,245.713333 317.131927,246.308914 316.759491,246.904510 
	C312.220978,251.985443 307.682465,257.066376 302.718018,262.580078 
	C301.118256,264.311584 299.944489,265.610321 298.770721,266.909058 
	C290.395966,273.113739 282.333282,279.811035 273.552155,285.374298 
	C265.902771,290.220581 257.023865,292.477875 247.861542,291.460052 
	C235.588943,290.096802 229.917114,284.701782 227.578979,272.531067 
	C225.856903,263.567108 227.507767,254.848694 230.234467,245.665634 
	C236.506195,247.298172 242.272980,248.799255 248.039749,250.300354 
	C247.916367,250.817291 247.792984,251.334213 247.669601,251.851151 
	C242.397736,250.771912 237.125870,249.692673 231.641785,248.569977 
	C229.488342,258.822510 227.786835,268.242157 231.674805,278.301819 
	C233.564056,280.874054 235.140427,282.870758 236.882660,285.126770 
	C238.303711,286.106995 239.558899,286.827820 241.137360,287.748596 
	C245.307144,288.313354 249.153671,288.678162 253.000198,289.042938 
	C262.329437,289.102264 270.458618,285.341370 277.874054,280.313812 
	C284.296722,275.959290 290.080750,270.662720 296.603821,265.345947 
	C299.732513,262.003540 302.404388,259.097809 305.387207,256.052917 
	C308.224609,252.868546 310.751129,249.823288 313.578247,246.580688 
	C316.190338,243.347275 318.501831,240.311203 321.039001,237.096649 
	C321.881592,235.960129 322.498474,235.002106 323.416687,233.898483 
	C325.859436,230.627609 328.000885,227.502350 330.445984,224.202728 
	C332.952515,220.858536 335.155426,217.688705 337.938873,213.683533 
	C334.865723,213.903336 332.930847,214.041733 330.553619,214.112106 
	C322.036102,214.049545 313.915955,214.582321 305.899384,213.899445 
	C299.053467,213.316284 292.099335,211.720993 289.031952,204.086502 
	C304.554291,214.447647 321.959137,212.035751 339.114044,211.562912 
	C351.897919,211.210541 364.689301,211.060043 377.477905,211.024414 
	C379.518494,211.018723 381.562073,212.090332 383.680847,213.426987 
	C371.720917,211.272842 365.913116,218.995834 360.257935,227.021484 
	C346.302948,246.826035 332.945374,267.093445 318.146515,286.246735 
	C308.234894,299.074707 296.266510,310.313507 284.808411,322.645111 
	C283.890228,323.577362 283.382080,324.127960 282.873932,324.678528 
	C269.516327,335.401672 255.599213,345.243713 239.505203,351.517639 
	C234.902023,353.312103 230.127045,354.665802 224.799225,356.518433 
	C223.110748,357.207214 222.053879,357.599213 220.997025,357.991211 
	C218.592072,358.332062 216.187119,358.672913 213.390900,359.117004 
	C211.866425,359.378937 210.733215,359.537659 208.965240,359.821472 
	C207.886795,360.022034 207.443115,360.097565 206.999435,360.173096 
	C197.092941,360.139618 187.183624,360.230469 177.281509,360.004791 
	C173.847473,359.926514 170.431320,359.063171 166.258011,358.328339 
	C161.005417,356.765778 156.501816,355.433289 151.998215,354.100800 
	C149.945526,352.980133 147.892838,351.859467 145.291412,350.390839 
	C143.082886,348.931244 141.423080,347.819611 139.763260,346.707977 
	C138.119614,345.086151 136.475983,343.464294 134.444519,341.387146 
	C133.162872,339.906830 132.269058,338.881775 131.375229,337.856750 
	C130.219009,335.691589 129.062775,333.526428 127.596100,330.749939 
	C126.599327,328.400909 125.912994,326.663177 125.226669,324.925446 
	C124.981262,323.474548 124.735847,322.023651 124.297493,319.948730 
	C124.013260,318.882324 123.921967,318.439941 123.830658,317.997589 
	C124.176262,311.266693 124.521866,304.535828 124.939331,297.038147 
	C125.734322,293.642395 126.457451,291.013428 127.180573,288.384460 
	C128.209457,286.207245 129.238342,284.029999 130.608490,281.260162 
	C132.457443,278.094818 133.965164,275.522064 135.472885,272.949341 
	C135.472885,272.949341 135.764114,272.749237 136.083923,272.340668 
	C137.464554,270.524109 139.005295,269.081909 136.120422,267.955017 
	C136.120422,267.955017 136.016769,267.477966 136.358368,267.196777 
	C138.769424,268.512573 139.926941,267.231628 141.592850,265.864685 
	C148.121521,260.507721 154.447006,254.701004 161.653931,250.417328 
	C174.331818,242.881805 188.511627,239.450851 203.146042,237.844864 
	C205.060883,237.634750 208.115707,236.786133 208.503281,235.558105 
	C210.368576,229.647797 211.500092,223.505905 212.712677,218.227066 
	C202.901031,216.475189 193.110062,215.464386 183.749817,212.888397 
	C168.501434,208.691971 156.179611,200.481430 151.543030,184.127716 
	C148.156998,172.184845 149.939728,160.764359 155.776733,149.978638 
	C166.378418,130.388565 183.364243,118.586990 203.768738,111.003365 
	C205.695435,110.287277 207.443085,109.089516 209.568176,108.113121 
	C210.242722,108.015373 210.622940,107.919876 211.003174,107.824387 
	C218.857697,107.193932 226.712616,106.074371 234.566635,106.080528 
	C241.425842,106.085899 248.284058,107.358864 255.791580,108.364548 
	C259.894226,109.963425 263.348022,111.269547 266.801788,112.575668 
	C267.634766,113.098793 268.467773,113.621910 269.614349,114.196526 
	C269.927948,114.248024 269.862274,114.266663 269.862274,114.266663 
	C270.351044,114.767105 270.839844,115.267548 271.663666,115.884201 
M349.417511,213.217682 
	C349.332062,213.400970 349.246643,213.584259 349.161224,213.767532 
	C349.356934,213.726120 349.552643,213.684708 349.417511,213.217682 
z"/>
<path fill="#030303" opacity="1.000000" stroke="none" 
	d="
M209.273865,108.115372 
	C207.443085,109.089516 205.695435,110.287277 203.768738,111.003365 
	C183.364243,118.586990 166.378418,130.388565 155.776733,149.978638 
	C149.939728,160.764359 148.156998,172.184845 151.543030,184.127716 
	C156.179611,200.481430 168.501434,208.691971 183.749817,212.888397 
	C193.110062,215.464386 202.901031,216.475189 212.712677,218.227066 
	C211.500092,223.505905 210.368576,229.647797 208.503281,235.558105 
	C208.115707,236.786133 205.060883,237.634750 203.146042,237.844864 
	C188.511627,239.450851 174.331818,242.881805 161.653931,250.417328 
	C154.447006,254.701004 148.121521,260.507721 141.592850,265.864685 
	C139.926941,267.231628 138.769424,268.512573 136.337921,266.953552 
	C134.441467,266.440552 132.907059,265.889587 131.244141,265.292450 
	C130.972061,260.767883 130.493103,256.367401 126.230949,255.831650 
	C124.432762,251.279877 123.135704,247.404633 121.365181,243.759338 
	C120.450905,241.876968 119.920609,239.303177 116.532593,239.407227 
	C115.759811,239.430939 113.927200,235.685028 114.230797,233.965088 
	C114.990257,229.662643 114.455666,226.447510 111.973602,222.466660 
	C108.876846,217.499954 105.025139,212.403839 105.284302,205.749878 
	C105.387817,203.092163 104.911644,200.747696 108.706017,200.365540 
	C109.977448,202.439606 110.789513,204.168579 111.601578,205.897568 
	C111.278656,205.891296 110.955742,205.885025 110.632820,205.878754 
	C110.632820,196.965393 110.632820,188.052048 110.632820,179.138687 
	C110.055229,179.158768 109.477646,179.178848 108.900055,179.198929 
	C108.900055,185.133789 108.900055,191.068634 108.900055,197.003494 
	C107.951050,196.050522 106.207947,195.116226 106.185028,194.141479 
	C106.059113,188.785751 106.392509,183.420761 106.484566,178.057526 
	C106.517799,176.121170 106.133003,174.165726 106.289108,172.247482 
	C106.398582,170.902191 106.833618,169.420746 107.590691,168.322266 
	C109.607803,165.395477 112.094032,162.774948 113.937790,159.754333 
	C114.652054,158.584167 114.113045,156.663879 114.191238,155.087601 
	C114.377937,151.323578 112.345276,146.270233 119.411690,146.515274 
	C120.202492,146.542725 121.597076,144.775284 121.783897,143.681717 
	C122.349030,140.373581 122.999794,136.918549 122.584694,133.651947 
	C122.203247,130.650177 123.322517,130.029938 125.668053,130.023132 
	C129.671280,130.011520 131.926788,127.637932 134.707504,124.986694 
	C139.210449,120.693405 144.837128,117.576553 150.002533,113.981926 
	C151.181198,113.161705 152.911591,112.696686 153.529709,111.589157 
	C155.526566,108.011116 158.735367,107.228851 162.337494,107.005936 
	C166.884125,106.724579 171.436935,106.232498 175.976761,106.327049 
	C177.493530,106.358650 178.966492,107.936035 180.480972,108.767677 
	C182.663010,109.965904 184.864639,111.128395 187.057922,112.306137 
	C187.468887,111.667610 187.879868,111.029083 188.290848,110.390564 
	C186.532516,108.840424 184.774185,107.290283 182.101166,104.933739 
	C186.203232,105.306007 189.710709,105.624313 194.019073,105.963745 
	C197.553009,106.318779 200.286057,106.652695 203.019089,106.986618 
	C203.850235,106.600243 204.681366,106.213860 205.918152,106.225105 
	C207.307144,107.120285 208.290512,107.617828 209.273865,108.115372 
z"/>
<path fill="#040404" opacity="1.000000" stroke="none" 
	d="
M395.005493,124.297913 
	C389.772217,126.672234 384.361603,128.663635 378.520630,130.604797 
	C378.110626,128.728363 377.986206,126.886688 378.179962,125.079102 
	C378.660858,120.592445 377.526581,119.856712 373.005798,119.680038 
	C369.887054,119.558151 366.596222,119.128288 364.686768,115.194809 
	C362.459625,110.606796 357.384552,110.730659 352.949982,110.571907 
	C346.420807,110.338181 339.984528,110.490021 333.818787,107.251198 
	C331.858673,106.221573 328.487579,107.878098 325.762146,108.305443 
	C325.838470,108.717697 325.914764,109.129951 325.991058,109.542206 
	C323.229858,108.835068 320.468628,108.127930 317.707947,107.427734 
	C323.718842,103.339203 352.144104,104.505714 357.370880,109.164963 
	C360.467865,107.098717 363.666504,105.193748 366.548950,109.575294 
	C370.538971,115.640503 375.982147,117.614853 383.921936,114.620621 
	C383.378174,117.154778 383.018341,118.831909 382.587708,120.838974 
	C386.563660,121.838135 390.695892,122.876564 395.005493,124.297913 
z"/>
<path fill="#040404" opacity="1.000000" stroke="none" 
	d="
M414.457642,186.971924 
	C413.496674,180.765411 412.609558,174.546356 411.558380,168.355148 
	C409.768188,157.811371 402.246979,149.743057 399.072906,139.413177 
	C404.632477,139.575531 407.833374,141.802475 407.131073,148.252228 
	C406.624390,152.905289 409.607849,155.297028 414.866180,154.719131 
	C412.670135,160.674820 413.689148,165.627136 415.165283,170.917618 
	C416.595886,176.044922 416.196503,181.682831 416.252441,187.426254 
	C415.421875,187.494659 414.939758,187.233292 414.457642,186.971924 
z"/>
<path fill="#040404" opacity="1.000000" stroke="none" 
	d="
M384.030487,275.681580 
	C379.340576,281.781494 374.891693,287.753448 369.947327,293.282349 
	C366.205170,297.466827 361.830627,301.085785 357.367981,304.981689 
	C356.998444,305.006927 356.937378,304.953888 356.937378,304.953888 
	C356.688049,298.941528 362.726044,297.606384 365.416290,293.742523 
	C369.621643,287.702576 374.610291,282.209137 379.246155,276.467285 
	C382.072266,272.966980 384.859131,269.434998 387.663635,265.917267 
	C388.133026,266.209442 388.602448,266.501617 389.071869,266.793793 
	C388.140564,268.656281 387.209229,270.518799 386.134644,272.700378 
	C385.347107,273.800690 384.702820,274.581940 384.030487,275.681580 
z"/>
<path fill="#BBBBBB" opacity="1.000000" stroke="none" 
	d="
M414.420929,186.958725 
	C414.939758,187.233292 415.421875,187.494659 416.072662,187.896240 
	C416.176025,192.081833 416.110748,196.127213 416.098083,200.586212 
	C415.342072,205.873840 414.533478,210.747849 413.481567,215.972687 
	C412.686279,216.211227 412.134308,216.098923 411.582306,215.986618 
	C412.604889,208.873718 413.627472,201.760803 415.012390,194.209229 
	C418.679077,191.015106 418.814178,188.724487 414.396576,187.101624 
	C414.396576,187.101624 414.384216,186.945511 414.420929,186.958725 
z"/>
<path fill="#666666" opacity="1.000000" stroke="none" 
	d="
M108.963257,197.374893 
	C108.900055,191.068634 108.900055,185.133789 108.900055,179.198929 
	C109.477646,179.178848 110.055229,179.158768 110.632820,179.138687 
	C110.632820,188.052048 110.632820,196.965393 110.632820,205.878754 
	C110.955742,205.885025 111.278656,205.891296 111.601578,205.897568 
	C110.789513,204.168579 109.977448,202.439606 109.089348,200.355560 
	C109.017700,199.249084 109.022079,198.497681 108.963257,197.374893 
z"/>
<path fill="#030303" opacity="1.000000" stroke="none" 
	d="
M152.006470,354.478668 
	C156.501816,355.433289 161.005417,356.765778 165.833313,358.265137 
	C164.594208,359.180664 162.765564,360.857971 161.517792,360.501556 
	C157.963043,359.486237 152.619766,360.930878 152.006470,354.478668 
z"/>
<path fill="#030303" opacity="1.000000" stroke="none" 
	d="
M126.990021,288.059174 
	C126.457451,291.013428 125.734322,293.642395 124.899597,296.637299 
	C121.588120,293.118896 121.668724,288.808044 122.694275,283.202667 
	C124.561958,285.264160 125.680710,286.499023 126.990021,288.059174 
z"/>
<path fill="#040404" opacity="1.000000" stroke="none" 
	d="
M266.849548,112.165382 
	C263.348022,111.269547 259.894226,109.963425 256.206909,108.376617 
	C257.876678,107.435616 260.271820,105.735039 261.572266,106.349861 
	C263.719238,107.364899 265.159302,109.875046 266.849548,112.165382 
z"/>
<path fill="#030303" opacity="1.000000" stroke="none" 
	d="
M135.127274,272.718506 
	C133.965164,275.522064 132.457443,278.094818 130.750397,280.922363 
	C127.875305,276.913940 129.751846,273.059601 135.127274,272.718506 
z"/>
<path fill="#030303" opacity="1.000000" stroke="none" 
	d="
M139.402405,346.884918 
	C141.423080,347.819611 143.082886,348.931244 144.964081,350.251343 
	C142.762085,351.112030 140.338715,351.764282 137.915329,352.416534 
	C137.650406,351.997955 137.385483,351.579407 137.120575,351.160828 
	C137.760895,349.794495 138.401230,348.428192 139.402405,346.884918 
z"/>
<path fill="#040404" opacity="1.000000" stroke="none" 
	d="
M310.894897,109.976730 
	C308.936279,110.314835 307.356537,110.617409 305.553711,110.962715 
	C308.489319,106.159683 310.179962,105.010590 311.801361,106.733704 
	C312.252350,107.213013 311.483185,108.840477 310.894897,109.976730 
z"/>
<path fill="#030303" opacity="1.000000" stroke="none" 
	d="
M124.859299,324.991882 
	C125.912994,326.663177 126.599327,328.400909 127.409172,330.480255 
	C125.799568,330.339233 124.066452,329.856567 122.333328,329.373901 
	C123.052856,327.935364 123.772392,326.496826 124.859299,324.991882 
z"/>
<path fill="#030303" opacity="1.000000" stroke="none" 
	d="
M131.062866,338.030762 
	C132.269058,338.881775 133.162872,339.906830 134.147461,341.212006 
	C133.198990,342.336029 132.159760,343.179932 131.120529,344.023804 
	C130.619156,343.788513 130.117783,343.553192 129.616409,343.317902 
	C129.994431,341.613525 130.372467,339.909149 131.062866,338.030762 
z"/>
<path fill="#040404" opacity="1.000000" stroke="none" 
	d="
M294.967590,133.740692 
	C293.598938,134.750168 292.165955,135.399109 290.383484,136.070435 
	C290.033966,134.631897 290.033966,133.170990 290.033966,130.313690 
	C292.283356,131.730255 293.593323,132.555206 294.967590,133.740692 
z"/>
<path fill="#040404" opacity="1.000000" stroke="none" 
	d="
M202.925568,106.607559 
	C200.286057,106.652695 197.553009,106.318779 194.444458,105.925980 
	C196.989990,105.987579 199.911011,106.108047 202.925568,106.607559 
z"/>
<path fill="#040404" opacity="1.000000" stroke="none" 
	d="
M393.842682,134.516632 
	C393.951843,133.587631 394.180573,133.023880 394.610474,132.341827 
	C395.832245,133.845657 396.852875,135.467804 397.871490,137.477936 
	C396.567078,136.871262 395.264679,135.876572 393.842682,134.516632 
z"/>
<path fill="#040404" opacity="1.000000" stroke="none" 
	d="
M209.568176,108.113121 
	C208.290512,107.617828 207.307144,107.120285 206.163116,106.320816 
	C207.608444,106.385651 209.214417,106.752403 210.911789,107.471771 
	C210.622940,107.919876 210.242722,108.015373 209.568176,108.113121 
z"/>
<path fill="#030303" opacity="1.000000" stroke="none" 
	d="
M135.815811,268.229645 
	C139.005295,269.081909 137.464554,270.524109 136.125397,272.168945 
	C135.735077,271.105286 135.623138,269.804779 135.815811,268.229645 
z"/>
<path fill="#040404" opacity="1.000000" stroke="none" 
	d="
M299.990234,132.219284 
	C299.365509,132.848969 298.559906,133.140503 297.436584,133.505707 
	C298.015686,133.013306 298.912506,132.447220 299.990234,132.219284 
z"/>
<path fill="#030303" opacity="1.000000" stroke="none" 
	d="
M123.546654,318.050537 
	C123.921967,318.439941 124.013260,318.882324 124.065834,319.662140 
	C123.502121,319.710541 122.977127,319.421448 122.452118,319.132385 
	C122.722290,318.789398 122.992470,318.446442 123.546654,318.050537 
z"/>
<path fill="#000000" opacity="1.000000" stroke="none" 
	d="
M207.049805,360.453796 
	C207.443115,360.097565 207.886795,360.022034 208.665222,360.000336 
	C208.699142,360.558167 208.398315,361.062225 208.097504,361.566284 
	C207.765060,361.289001 207.432617,361.011749 207.049805,360.453796 
z"/>
<path fill="#040404" opacity="1.000000" stroke="none" 
	d="
M270.187286,114.177338 
	C269.862274,114.266663 269.927948,114.248024 269.903290,114.269928 
	C270.160614,113.725372 270.442566,113.158913 270.724548,112.592461 
	C270.954376,112.754944 271.184204,112.917427 271.414032,113.079910 
	C271.113464,113.415955 270.812897,113.751984 270.187286,114.177338 
z"/>
<path fill="#040404" opacity="1.000000" stroke="none" 
	d="
M314.469421,108.451599 
	C314.523468,108.419815 314.415375,108.483391 314.469421,108.451599 
z"/>
<path fill="#040404" opacity="1.000000" stroke="none" 
	d="
M398.869690,138.751221 
	C398.669495,138.886627 398.458282,138.757874 398.246765,138.366501 
	C398.469666,138.202927 398.673737,138.330643 398.869690,138.751221 
z"/>
<path fill="#000000" opacity="1.000000" stroke="none" 
	d="
M168.144958,250.159607 
	C169.668671,248.991241 171.482910,248.044022 173.648575,247.108124 
	C175.272888,250.008911 175.995056,253.369415 177.960068,255.666931 
	C180.339691,258.449188 183.744904,259.244171 187.812439,258.156281 
	C190.992233,257.305817 194.639404,257.703796 197.976990,258.213959 
	C199.140396,258.391785 199.984894,260.576019 201.000275,261.823395 
	C202.121048,263.200134 203.075684,265.433411 204.447647,265.737549 
	C207.510971,266.416626 208.134644,268.083923 208.013474,270.712860 
	C207.936859,272.374939 207.988541,274.043671 208.005310,275.709198 
	C208.043625,279.511292 209.519058,281.400970 213.634979,282.496216 
	C215.724121,283.052094 216.269836,288.204315 218.544479,289.610199 
	C220.758408,290.978577 224.335953,290.618225 227.227737,290.277802 
	C230.106216,289.938934 231.647705,290.354675 232.104919,293.478882 
	C232.602829,296.881256 235.025909,298.023376 238.246460,298.008789 
	C245.993011,297.973663 253.814178,298.625977 261.453644,297.721130 
	C265.019257,297.298798 268.241394,293.921722 271.600189,291.852997 
	C272.301453,291.421051 272.936157,290.395996 273.572144,290.420074 
	C278.490997,290.606293 281.683441,288.708618 283.025391,283.735107 
	C283.221008,283.010132 285.187714,282.763000 286.334900,282.294769 
	C286.771057,283.409210 287.428070,284.494629 287.579559,285.646545 
	C287.723328,286.739929 286.935822,288.034027 287.254822,289.012695 
	C288.656525,293.312744 287.680817,294.557037 283.017395,296.611969 
	C279.046417,298.361786 275.453796,303.377838 272.329620,307.307373 
	C270.645508,309.425568 270.324585,311.593414 266.923401,312.384277 
	C265.111053,312.805695 264.089294,316.626953 262.258514,319.663666 
	C259.139526,319.747253 255.463852,320.752563 255.637939,326.240540 
	C255.654083,326.749634 254.508011,327.761810 253.915619,327.751221 
	C248.553223,327.655884 248.036499,331.598694 247.664337,336.000702 
	C243.868881,336.000702 240.407074,336.107880 236.955124,335.969299 
	C233.765335,335.841278 231.977600,336.711273 231.829254,340.371002 
	C231.779053,341.609528 229.852036,343.795929 228.790451,343.791260 
	C224.335297,343.771606 219.887360,345.394653 216.193237,339.709656 
	C214.067307,336.438019 209.951981,334.201080 208.363449,329.774445 
	C207.883194,328.436157 204.721191,328.060242 202.352264,327.059601 
	C202.466461,322.401733 199.826416,320.070770 194.767609,319.943329 
	C190.367905,319.832428 191.167908,316.592865 191.663193,313.308136 
	C187.459900,314.314941 185.607971,312.893646 185.658447,308.450287 
	C185.671402,307.311096 182.853012,305.736176 181.070770,305.078156 
	C178.623642,304.174652 176.847992,303.530853 177.699554,300.268799 
	C178.573517,296.920868 176.858322,295.539886 173.545776,296.309021 
	C170.396652,297.040192 169.017593,295.732727 169.673798,292.720642 
	C170.397812,289.397186 169.244843,287.918976 165.946259,288.007355 
	C163.244659,288.079681 161.884460,286.870270 162.004028,284.124329 
	C162.116684,281.537415 161.138184,279.759247 158.306244,280.046387 
	C154.033203,280.479584 153.504318,277.155853 153.533508,274.597504 
	C153.563995,271.923157 154.712860,269.091187 155.994766,266.655426 
	C157.020828,264.705750 158.942963,263.211731 160.533127,261.579498 
	C162.015747,260.057648 163.487930,257.491547 165.133728,257.349976 
	C170.863174,256.857117 170.460312,254.172119 168.144958,250.159607 
z"/>
<path fill="#000000" opacity="1.000000" stroke="none" 
	d="
M320.813324,237.275131 
	C318.501831,240.311203 316.190338,243.347275 313.500183,246.170868 
	C312.208252,243.113068 310.416046,240.837997 307.499023,242.739502 
	C306.513336,243.382034 307.342926,246.809357 307.342926,250.143768 
	C306.927429,251.252472 306.001862,253.722260 305.076294,256.192047 
	C302.404388,259.097809 299.732513,262.003540 296.767822,265.037262 
	C293.066132,264.776825 289.662292,264.334381 286.246948,264.014832 
	C282.628052,263.676208 279.560944,263.965851 279.827057,268.984741 
	C279.876251,269.913147 277.929077,271.868256 277.295776,271.716095 
	C276.061035,271.419434 274.988556,270.063568 274.070404,268.961731 
	C273.411957,268.171539 273.113647,267.081268 272.321899,265.672607 
	C273.754181,257.229675 269.205292,252.259094 263.717957,247.386948 
	C263.174957,245.801880 262.557678,244.602798 261.940399,243.403687 
	C261.266754,244.011612 260.593109,244.619553 259.564697,245.140961 
	C255.739746,243.561356 252.269592,242.068298 248.822617,240.200806 
	C247.495544,239.581757 246.145279,239.337173 244.453064,239.088074 
	C243.043076,238.803558 241.975037,238.523560 240.873535,237.862274 
	C239.506271,237.523941 238.172485,237.566864 236.495636,237.568634 
	C237.665237,233.314590 239.177887,229.101669 240.690536,224.888763 
	C241.978882,225.160568 243.284576,225.369186 244.552124,225.716827 
	C247.543900,226.537354 249.681931,225.588043 249.854446,222.424805 
	C250.052505,218.793015 252.155289,218.162277 255.105057,217.963470 
	C257.558502,217.798141 260.035583,217.463608 262.408417,216.844498 
	C263.560486,216.543884 265.313599,215.502167 265.398651,214.655716 
	C265.913483,209.532379 269.417328,209.936798 273.006958,209.972366 
	C281.022522,210.051834 281.018616,209.990295 282.235992,202.262177 
	C282.281464,201.973450 282.588196,201.725876 283.326996,200.660583 
	C285.080933,201.509918 286.984436,202.431702 288.959961,203.719986 
	C292.099335,211.720993 299.053467,213.316284 305.899384,213.899445 
	C313.915955,214.582321 322.036102,214.049545 330.541595,214.520309 
	C330.695374,218.123383 330.418823,221.250229 330.142303,224.377075 
	C328.000885,227.502350 325.859436,230.627609 323.017639,233.887772 
	C321.071259,234.505066 319.825256,234.987473 318.579224,235.469864 
	C319.323914,236.071625 320.068634,236.673386 320.813324,237.275131 
M313.755127,229.038101 
	C314.756439,228.628265 316.240814,228.497528 316.668945,227.756516 
	C317.983582,225.481110 318.893524,222.971893 319.763733,221.000000 
	C312.081268,221.000000 303.819519,221.000107 295.557770,220.999954 
	C286.420593,220.999786 286.420593,220.999680 284.387054,213.008133 
	C280.145935,213.008133 276.049500,212.917297 271.962708,213.075394 
	C271.004608,213.112457 269.324982,213.903397 269.255463,214.497147 
	C268.575439,220.305527 263.675262,220.947495 259.944397,220.719559 
	C253.926331,220.351913 252.103745,223.186813 251.462982,228.452957 
	C255.508957,229.546814 259.983063,230.372147 260.344391,235.961365 
	C260.367920,236.325546 261.323456,236.843231 261.897003,236.924225 
	C266.416168,237.562393 268.303741,240.517410 268.574463,244.568893 
	C281.581390,246.647430 275.697662,256.444275 276.316711,262.354950 
	C280.658356,261.873840 284.605743,261.086273 288.549622,261.103546 
	C292.088867,261.119019 293.534363,259.889709 292.982605,256.475433 
	C292.323212,252.395309 294.271240,249.595322 297.045288,246.927734 
	C298.987976,245.059631 300.128326,242.178299 302.289124,240.754089 
	C306.444916,238.014969 309.327942,234.533966 311.222473,230.034470 
	C311.414215,229.579010 312.369141,229.444885 313.755127,229.038101 
z"/>
<path fill="#000000" opacity="1.000000" stroke="none" 
	d="
M236.716782,284.867432 
	C235.140427,282.870758 233.564056,280.874054 231.988861,278.554108 
	C232.593811,275.117523 233.379700,272.024170 233.724747,268.882446 
	C233.897766,267.307159 233.084686,265.649536 233.032745,264.019104 
	C232.803848,256.833282 233.322922,256.436768 240.096817,258.147766 
	C245.398010,259.486786 248.438492,257.671814 250.193619,252.582352 
	C250.563293,251.510422 252.166687,250.304764 253.274948,250.228638 
	C254.118378,250.170700 255.872681,251.829468 255.845642,252.680725 
	C255.739807,256.012726 257.732971,257.233521 260.347260,257.554260 
	C263.699402,257.965576 264.265411,259.877167 264.028381,262.707794 
	C263.876465,264.522186 264.067902,266.362671 263.985748,268.186066 
	C263.838776,271.449036 264.934082,273.455505 268.470642,274.206573 
	C269.785736,274.485840 270.754242,276.397034 271.880798,277.564056 
	C270.460693,278.375031 268.986847,279.960754 267.629517,279.866577 
	C260.734344,279.388336 255.082153,280.608765 253.005066,288.671448 
	C249.153671,288.678162 245.307144,288.313354 241.160812,287.339172 
	C240.098785,284.731171 240.031021,281.187195 236.716782,284.867432 
z"/>
<path fill="#E7E7E7" opacity="1.000000" stroke="none" 
	d="
M240.906998,238.243530 
	C241.975037,238.523560 243.043076,238.803558 244.689331,239.367859 
	C246.444839,239.959854 247.622131,240.267548 248.799423,240.575226 
	C252.269592,242.068298 255.739746,243.561356 259.737793,245.418640 
	C261.391693,246.446213 262.517670,247.109573 263.643646,247.772934 
	C269.205292,252.259094 273.754181,257.229675 271.949219,265.595428 
	C271.200409,266.028992 270.491577,266.087433 269.782776,266.145935 
	C268.928833,248.554337 255.475464,244.830872 242.103836,241.141556 
	C238.951691,240.271851 235.633286,240.004684 231.961945,239.388214 
	C240.522644,214.960678 254.661057,194.342514 271.887573,175.255417 
	C272.652313,175.559006 272.865997,175.873917 272.956787,176.496155 
	C263.913696,187.140305 255.610733,197.908386 248.634247,210.381653 
	C278.429565,204.206375 317.919220,164.552444 316.868439,142.294693 
	C314.960907,142.920883 313.113770,143.527252 311.012878,144.017975 
	C310.511200,143.633133 310.263306,143.363953 310.015381,143.094757 
	C313.084930,141.809464 316.154480,140.524170 319.224030,139.238876 
	C319.743805,139.676285 320.263580,140.113693 320.783325,140.551102 
	C319.015564,145.929382 317.865479,151.613892 315.376404,156.634567 
	C302.490845,182.625778 282.115601,200.746384 255.055923,210.739517 
	C247.756134,213.435333 243.300690,217.269638 240.778198,224.537811 
	C239.177887,229.101669 237.665237,233.314590 236.818787,237.688385 
	C238.625656,237.980698 239.766327,238.112122 240.906998,238.243530 
z"/>
<path fill="#040404" opacity="1.000000" stroke="none" 
	d="
M411.414551,216.370743 
	C412.134308,216.098923 412.686279,216.211227 413.526978,216.359680 
	C411.332306,227.868347 407.500549,238.826904 401.446075,248.943863 
	C398.117676,254.505554 394.814972,260.082611 391.500671,265.652710 
	C390.981506,265.443207 390.462372,265.233673 389.943207,265.024139 
	C390.281219,263.594940 390.306427,261.981995 391.017303,260.771820 
	C392.966217,257.453857 395.341949,254.386414 397.286926,251.066406 
	C399.185089,247.826279 400.983887,244.490250 402.428986,241.030365 
	C405.266174,234.237381 407.855804,227.339966 410.475494,220.458191 
	C410.918488,219.294510 410.998871,217.992813 411.414551,216.370743 
z"/>
<path fill="#040404" opacity="1.000000" stroke="none" 
	d="
M280.000000,380.002167 
	C278.942383,381.368774 277.947327,382.789764 276.815002,384.091370 
	C273.826477,387.526733 270.616302,390.782990 267.809387,394.357910 
	C265.844055,396.860992 263.888000,398.077240 261.246552,395.741577 
	C258.977570,393.735291 256.982178,391.419647 254.865829,389.240784 
	C255.176971,388.761017 255.488113,388.281250 255.799255,387.801483 
	C258.978668,389.076019 262.158051,390.350555 263.937256,391.063782 
	C269.327667,387.073303 274.066895,383.564880 279.326416,379.889587 
	C279.846741,379.722717 280.000000,380.002167 280.000000,380.002167 
z"/>
<path fill="#DBDBDB" opacity="1.000000" stroke="none" 
	d="
M309.668213,143.128311 
	C310.263306,143.363953 310.511200,143.633133 310.818359,144.310791 
	C307.376404,146.865494 303.494415,148.575806 300.445221,151.239487 
	C291.151031,159.358627 282.177856,167.845230 273.079712,176.188812 
	C272.865997,175.873917 272.652313,175.559006 272.185303,175.105774 
	C282.779877,162.466904 294.870728,151.427551 309.668213,143.128311 
z"/>
<path fill="#040404" opacity="1.000000" stroke="none" 
	d="
M163.826172,298.091553 
	C164.832596,299.097534 165.485321,300.000427 166.724731,301.714783 
	C160.293015,299.765717 148.402878,285.615936 148.936829,280.302338 
	C153.325699,285.890533 157.176941,290.832886 161.083435,295.731201 
	C161.759811,296.579315 162.670166,297.240753 163.826172,298.091553 
z"/>
<path fill="#040404" opacity="1.000000" stroke="none" 
	d="
M241.012024,375.988007 
	C246.608078,377.358887 251.685837,379.322235 252.546890,387.495026 
	C248.294815,383.479065 244.705261,380.088837 241.057861,376.349304 
	C241.000000,376.000000 241.012024,375.988007 241.012024,375.988007 
z"/>
<path fill="#040404" opacity="1.000000" stroke="none" 
	d="
M240.993866,376.005981 
	C237.212158,372.875580 233.436600,369.739197 229.661026,366.602844 
	C230.100143,366.121124 230.539261,365.639404 230.978363,365.157684 
	C235.418777,367.314972 239.133530,370.270599 241.006561,375.623260 
	C241.012024,375.988007 241.000000,376.000000 240.993866,376.005981 
z"/>
<path fill="#D5D5D5" opacity="1.000000" stroke="none" 
	d="
M282.792603,375.792725 
	C287.325348,371.594727 291.858063,367.396729 296.703247,363.039062 
	C297.015656,362.879425 296.936462,362.844452 296.936462,362.844452 
	C292.635742,367.454010 288.335022,372.063538 283.588440,376.523987 
	C283.025909,376.180817 282.909271,375.986786 282.792603,375.792725 
z"/>
<path fill="#040404" opacity="1.000000" stroke="none" 
	d="
M345.244293,316.533417 
	C347.891632,313.678802 350.538940,310.824158 353.596405,307.988800 
	C354.006531,308.008057 354.106628,308.109833 354.106628,308.109833 
	C351.573334,310.983429 349.040009,313.857025 346.053284,316.827332 
	C345.444763,316.827087 345.326233,316.696869 345.244293,316.533417 
z"/>
<path fill="#CACACA" opacity="1.000000" stroke="none" 
	d="
M301.790283,357.769989 
	C304.812225,354.770599 307.834167,351.771210 310.856110,348.771820 
	C311.264526,349.205475 311.672913,349.639130 312.081299,350.072784 
	C309.100952,352.895782 306.120636,355.718811 302.666901,358.431580 
	C302.059082,358.137543 301.924683,357.953766 301.790283,357.769989 
z"/>
<path fill="#040404" opacity="1.000000" stroke="none" 
	d="
M219.756195,352.888916 
	C218.932037,353.513092 217.782135,353.991058 216.310287,354.546814 
	C214.017487,352.312103 212.046646,349.999695 210.037903,347.343628 
	C210.000000,347.000000 210.006119,346.993896 210.006119,346.993896 
	C213.147568,348.910156 216.289001,350.826447 219.756195,352.888916 
z"/>
<path fill="#040404" opacity="1.000000" stroke="none" 
	d="
M221.131592,358.302734 
	C222.053879,357.599213 223.110748,357.207214 224.532440,356.772003 
	C225.953934,358.871124 227.010590,361.013519 228.067245,363.155884 
	C227.635056,363.481445 227.202866,363.806976 226.770676,364.132538 
	C224.935822,362.293091 223.100983,360.453644 221.131592,358.302734 
z"/>
<path fill="#040404" opacity="1.000000" stroke="none" 
	d="
M139.881363,273.973206 
	C140.129715,272.919556 140.715820,272.013123 141.599213,270.933502 
	C143.651108,273.434479 145.405716,276.108643 147.160339,278.782806 
	C146.722900,279.165314 146.285461,279.547852 145.848022,279.930389 
	C143.971710,277.993713 142.095413,276.057068 139.881363,273.973206 
z"/>
<path fill="#E3E3E3" opacity="1.000000" stroke="none" 
	d="
M335.114777,325.622955 
	C337.094147,323.685333 339.073517,321.747742 341.052887,319.810120 
	C341.555786,320.314026 342.058655,320.817963 342.561554,321.321869 
	C340.665955,322.882751 338.770386,324.443604 336.291809,325.953308 
	C335.510773,325.809021 335.312775,325.715973 335.114777,325.622955 
z"/>
<path fill="#040404" opacity="1.000000" stroke="none" 
	d="
M171.044739,308.013733 
	C169.703873,307.186707 168.363007,306.359711 167.022141,305.532684 
	C167.436401,304.962830 167.850662,304.392975 168.264923,303.823120 
	C169.471619,304.848633 170.678314,305.874146 171.725708,307.393250 
	C171.392517,307.929138 171.218628,307.971436 171.044739,308.013733 
z"/>
<path fill="#CACACA" opacity="1.000000" stroke="none" 
	d="
M297.031799,362.919556 
	C298.420441,361.308899 299.792999,359.658081 301.477905,357.888611 
	C301.924683,357.953766 302.059082,358.137543 302.370850,358.613220 
	C300.902039,360.190948 299.255829,361.476776 297.273071,362.803528 
	C296.936462,362.844452 297.015656,362.879425 297.031799,362.919556 
z"/>
<path fill="#040404" opacity="1.000000" stroke="none" 
	d="
M241.996536,342.114014 
	C240.905090,343.171997 239.363708,344.189148 237.489471,345.320679 
	C236.567368,341.634155 239.125259,341.942810 241.996536,342.114014 
z"/>
<path fill="#040404" opacity="1.000000" stroke="none" 
	d="
M317.002747,345.122711 
	C316.121765,346.387177 315.240784,347.651642 314.359802,348.916077 
	C313.902618,348.567871 313.445435,348.219666 312.988251,347.871429 
	C313.928772,346.632751 314.869324,345.394043 316.053467,344.120972 
	C316.532318,344.431946 316.767548,344.777344 317.002747,345.122711 
z"/>
<path fill="#040404" opacity="1.000000" stroke="none" 
	d="
M299.190918,266.931885 
	C299.944489,265.610321 301.118256,264.311584 302.597656,262.885681 
	C303.178589,265.234222 303.016113,267.366455 299.190918,266.931885 
z"/>
<path fill="#040404" opacity="1.000000" stroke="none" 
	d="
M414.272522,187.659653 
	C418.814178,188.724487 418.679077,191.015106 414.869995,193.819305 
	C414.292999,191.984589 414.220734,190.101135 414.272522,187.659653 
z"/>
<path fill="#040404" opacity="1.000000" stroke="none" 
	d="
M209.996643,347.003052 
	C209.123871,346.442291 208.254456,345.878510 207.385025,345.314728 
	C207.782455,344.931183 208.179871,344.547607 208.577286,344.164032 
	C209.050537,344.870026 209.523788,345.576019 210.001587,346.637939 
	C210.006119,346.993896 210.000000,347.000000 209.996643,347.003052 
z"/>
<path fill="#E3E3E3" opacity="1.000000" stroke="none" 
	d="
M317.271118,344.984558 
	C316.767548,344.777344 316.532318,344.431946 316.312622,343.746002 
	C316.735809,343.223389 317.143555,343.041382 317.920654,343.031006 
	C318.440155,343.302612 318.590240,343.402588 318.740356,343.502563 
	C318.340057,343.950500 317.939789,344.398438 317.271118,344.984558 
z"/>
<path fill="#040404" opacity="1.000000" stroke="none" 
	d="
M322.455475,239.998627 
	C322.510406,239.379990 322.891754,238.756927 323.535767,238.029114 
	C323.459625,238.614319 323.120758,239.304260 322.455475,239.998627 
z"/>
<path fill="#040404" opacity="1.000000" stroke="none" 
	d="
M317.129333,246.923050 
	C317.131927,246.308914 317.504364,245.713333 318.094604,244.962402 
	C318.688538,245.231796 319.064667,245.656540 319.440796,246.081299 
	C318.793579,246.368057 318.146362,246.654831 317.129333,246.923050 
z"/>
<path fill="#040404" opacity="1.000000" stroke="none" 
	d="
M283.050232,324.952881 
	C283.382080,324.127960 283.890228,323.577362 284.674316,322.949463 
	C284.375671,323.657135 283.801117,324.442169 283.050232,324.952881 
z"/>
<path fill="#E3E3E3" opacity="1.000000" stroke="none" 
	d="
M335.253754,327.254272 
	C334.769897,327.852295 334.286011,328.450287 333.253113,328.958252 
	C332.506042,328.768982 332.307983,328.669739 332.109924,328.570465 
	C332.735321,327.905182 333.360718,327.239899 334.433350,326.657379 
	C335.004944,326.911499 335.129333,327.082886 335.253754,327.254272 
z"/>
<path fill="#040404" opacity="1.000000" stroke="none" 
	d="
M205.997772,239.882233 
	C206.561386,239.869888 207.257706,240.148697 207.870544,240.716003 
	C207.234879,240.727463 206.682678,240.450424 205.997772,239.882233 
z"/>
<path fill="#D5D5D5" opacity="1.000000" stroke="none" 
	d="
M280.302032,379.909210 
	C280.000000,380.002167 279.846741,379.722717 279.688782,379.744019 
	C279.776611,379.149658 280.022339,378.533997 280.785736,378.030548 
	C281.492004,378.238953 281.680634,378.335144 281.869293,378.431366 
	C281.447571,378.893005 281.025818,379.354645 280.302032,379.909210 
z"/>
<path fill="#040404" opacity="1.000000" stroke="none" 
	d="
M353.956116,307.957520 
	C354.380188,307.287872 354.854675,306.668732 355.669128,306.023193 
	C356.009125,305.996826 356.082825,306.058136 356.082825,306.058136 
	C355.626465,306.690155 355.170105,307.322174 354.410217,308.032013 
	C354.106628,308.109833 354.006531,308.008057 353.956116,307.957520 
z"/>
<path fill="#040404" opacity="1.000000" stroke="none" 
	d="
M348.059204,131.460709 
	C348.560699,131.149704 349.124359,131.142456 349.926514,131.291931 
	C349.483795,131.553925 348.802582,131.659195 348.059204,131.460709 
z"/>
<path fill="#E3E3E3" opacity="1.000000" stroke="none" 
	d="
M344.538940,316.823883 
	C344.357330,317.252350 344.175751,317.680817 344.219116,317.578522 
	C344.079742,317.692963 344.375336,317.450256 344.647217,317.031281 
	C344.623505,316.855011 344.538940,316.823883 344.538940,316.823883 
z"/>
<path fill="#E2E2E2" opacity="1.000000" stroke="none" 
	d="
M181.122070,316.872375 
	C181.544388,317.230988 181.966690,317.589630 182.325745,318.360474 
	C182.123108,318.904663 181.983704,319.036621 181.844299,319.168549 
	C181.273407,318.713928 180.702515,318.259308 180.326996,317.454285 
	C180.722290,317.026764 180.922180,316.949585 181.122070,316.872375 
z"/>
<path fill="#E2E2E2" opacity="1.000000" stroke="none" 
	d="
M171.120117,308.294128 
	C171.218628,307.971436 171.392517,307.929138 171.783997,307.729614 
	C172.327515,307.801727 172.653458,308.031067 172.891861,308.765381 
	C172.699860,309.423553 172.595367,309.576752 172.490891,309.729919 
	C172.059097,309.344788 171.627289,308.959656 171.120117,308.294128 
z"/>
<path fill="#E2E2E2" opacity="1.000000" stroke="none" 
	d="
M183.910477,321.230652 
	C183.321472,320.774658 182.732468,320.318665 181.993896,319.515594 
	C181.983704,319.036621 182.123108,318.904663 182.489441,318.595490 
	C183.130463,318.738068 183.544571,319.057861 183.926697,319.955017 
	C183.899979,320.765106 183.905228,320.997894 183.910477,321.230652 
z"/>
<path fill="#E3E3E3" opacity="1.000000" stroke="none" 
	d="
M329.023712,332.860840 
	C329.132935,332.199829 329.693298,331.759979 330.253632,331.320099 
	C329.994049,331.907379 329.734436,332.494690 329.023712,332.860840 
z"/>
<path fill="#E3E3E3" opacity="1.000000" stroke="none" 
	d="
M326.250000,335.250000 
	C326.533356,335.299988 326.566681,335.600006 326.600006,335.899994 
	C326.399994,335.766663 326.200012,335.633331 326.250000,335.250000 
z"/>
<path fill="#E2E2E2" opacity="1.000000" stroke="none" 
	d="
M200.488007,337.709869 
	C200.186890,337.473419 199.885788,337.236969 199.667862,336.590637 
	C199.898758,336.056213 200.046463,335.931641 200.194168,335.807037 
	C200.493393,335.956696 200.792603,336.106384 200.972504,336.735046 
	C200.731461,337.379303 200.609726,337.544586 200.488007,337.709869 
z"/>
<path fill="#E3E3E3" opacity="1.000000" stroke="none" 
	d="
M324.755432,336.267914 
	C324.706116,336.544495 324.412933,336.576263 324.119751,336.608032 
	C324.250366,336.413055 324.380951,336.218079 324.755432,336.267914 
z"/>
<path fill="#E2E2E2" opacity="1.000000" stroke="none" 
	d="
M201.053146,336.979889 
	C201.545471,336.929077 201.837845,337.112396 201.972870,337.760437 
	C201.710922,338.370026 201.606308,338.514862 201.501694,338.659729 
	C201.179001,338.573944 200.924835,338.392273 200.613586,337.912292 
	C200.609726,337.544586 200.731461,337.379303 201.053146,336.979889 
z"/>
<path fill="#040404" opacity="1.000000" stroke="none" 
	d="
M253.471191,388.453827 
	C253.522247,388.424194 253.420151,388.483459 253.471191,388.453827 
z"/>
<path fill="#E2E2E2" opacity="1.000000" stroke="none" 
	d="
M201.996140,338.027161 
	C202.099854,338.175049 202.022934,338.520996 201.723862,338.763306 
	C201.606308,338.514862 201.710922,338.370026 201.996140,338.027161 
z"/>
<path fill="#E3E3E3" opacity="1.000000" stroke="none" 
	d="
M321.817810,338.818756 
	C322.282806,338.597412 322.747772,338.376068 323.212769,338.154724 
	C323.177887,338.562775 323.143036,338.970856 322.639404,339.354065 
	C322.053009,339.159058 321.935394,338.988892 321.817810,338.818756 
z"/>
<path fill="#E3E3E3" opacity="1.000000" stroke="none" 
	d="
M320.859741,339.864746 
	C321.014038,339.566986 321.168365,339.269257 321.570251,338.895142 
	C321.935394,338.988892 322.053009,339.159058 322.309509,339.606689 
	C322.303467,340.181030 322.119110,340.451019 321.541565,340.522034 
	C321.078461,340.188232 320.969086,340.026489 320.859741,339.864746 
z"/>
<path fill="#E3E3E3" opacity="1.000000" stroke="none" 
	d="
M319.871735,340.872650 
	C320.039276,340.588776 320.206818,340.304871 320.617065,339.942871 
	C320.969086,340.026489 321.078461,340.188232 321.313538,340.614532 
	C321.304657,341.148102 321.129456,341.387360 320.563599,341.450684 
	C320.099609,341.160583 319.985657,341.016632 319.871735,340.872650 
z"/>
<path fill="#E3E3E3" opacity="1.000000" stroke="none" 
	d="
M318.836670,341.839417 
	C319.010773,341.554108 319.184906,341.268799 319.615356,340.928070 
	C319.985657,341.016632 320.099609,341.160583 320.358337,341.538818 
	C320.356964,342.072876 320.164673,342.339355 319.554077,342.433746 
	C319.066772,342.143036 318.951721,341.991211 318.836670,341.839417 
z"/>
<path fill="#D5D5D5" opacity="1.000000" stroke="none" 
	d="
M281.776550,376.778412 
	C281.952728,376.499359 282.128906,376.220276 282.548828,375.866943 
	C282.909271,375.986786 283.025909,376.180817 283.270447,376.689575 
	C283.200165,377.282990 283.001953,377.561768 282.453247,377.600830 
	C281.994049,377.166870 281.885315,376.972656 281.776550,376.778412 
z"/>
<path fill="#E3E3E3" opacity="1.000000" stroke="none" 
	d="
M318.078796,343.033691 
	C318.027954,342.574615 318.188385,342.284485 318.592743,341.916901 
	C318.951721,341.991211 319.066772,342.143036 319.330078,342.539215 
	C319.404480,343.019928 319.266296,343.209442 318.902100,343.427307 
	C318.590240,343.402588 318.440155,343.302612 318.078796,343.033691 
z"/>
<path fill="#D5D5D5" opacity="1.000000" stroke="none" 
	d="
M282.206909,377.678314 
	C282.311035,377.995544 282.047028,378.319580 281.958160,378.375488 
	C281.680634,378.335144 281.492004,378.238953 281.042114,377.962128 
	C280.951599,377.499878 281.122375,377.218231 281.534851,376.857513 
	C281.885315,376.972656 281.994049,377.166870 282.206909,377.678314 
z"/>
<path fill="#E2E2E2" opacity="1.000000" stroke="none" 
	d="
M187.772278,325.128723 
	C187.375885,324.601166 186.979492,324.073608 186.583099,323.546082 
	C186.936859,323.401398 187.290634,323.256714 187.758240,323.789429 
	C187.838806,324.687439 187.805542,324.908081 187.772278,325.128723 
z"/>
<path fill="#040404" opacity="1.000000" stroke="none" 
	d="
M355.977722,305.960602 
	C356.081940,305.633148 356.277191,305.389801 356.734741,305.074097 
	C356.937378,304.953888 356.998444,305.006927 357.024841,305.038147 
	C356.920044,305.361237 356.730469,305.608337 356.282684,305.934387 
	C356.082825,306.058136 356.009125,305.996826 355.977722,305.960602 
z"/>
<path fill="#E2E2E2" opacity="1.000000" stroke="none" 
	d="
M172.981674,309.056091 
	C173.447983,309.007233 173.736938,309.172699 173.914337,309.802490 
	C173.696320,310.420319 173.589874,310.573883 173.483414,310.727417 
	C173.170242,310.613953 172.924988,310.416260 172.619263,309.932129 
	C172.595367,309.576752 172.699860,309.423553 172.981674,309.056091 
z"/>
<path fill="#E2E2E2" opacity="1.000000" stroke="none" 
	d="
M174.504547,311.797241 
	C174.251968,311.584167 173.999390,311.371094 173.615112,310.942719 
	C173.589874,310.573883 173.696320,310.420319 173.982742,310.051941 
	C174.453995,309.998718 174.745300,310.160339 174.927032,310.804779 
	C174.713165,311.457489 174.608856,311.627350 174.504547,311.797241 
z"/>
<path fill="#E2E2E2" opacity="1.000000" stroke="none" 
	d="
M175.001190,311.051666 
	C175.463394,310.994659 175.741852,311.173615 175.911179,311.843628 
	C175.708527,312.509613 175.614990,312.684540 175.521469,312.859467 
	C175.271683,312.647125 175.021896,312.434784 174.638321,312.009827 
	C174.608856,311.627350 174.713165,311.457489 175.001190,311.051666 
z"/>
<path fill="#E2E2E2" opacity="1.000000" stroke="none" 
	d="
M176.514343,313.859161 
	C176.174026,313.782410 175.926163,313.587891 175.646118,313.067505 
	C175.614990,312.684540 175.708527,312.509613 175.975647,312.093079 
	C176.438477,312.015320 176.727722,312.179169 176.912750,312.834412 
	C176.710464,313.503571 176.612411,313.681366 176.514343,313.859161 
z"/>
<path fill="#E2E2E2" opacity="1.000000" stroke="none" 
	d="
M177.547028,314.907623 
	C177.288300,314.704437 177.029572,314.501251 176.642609,314.078613 
	C176.612411,313.681366 176.710464,313.503571 176.987640,313.079407 
	C177.453629,312.999603 177.740540,313.166138 177.925293,313.838867 
	C177.731110,314.532532 177.639069,314.720062 177.547028,314.907623 
z"/>
<path fill="#E2E2E2" opacity="1.000000" stroke="none" 
	d="
M178.522247,315.910706 
	C178.179031,315.839874 177.933990,315.645355 177.667084,315.117401 
	C177.639069,314.720062 177.731110,314.532532 177.998566,314.085388 
	C178.455856,313.999023 178.737701,314.172302 178.912598,314.848694 
	C178.711197,315.538116 178.616730,315.724396 178.522247,315.910706 
z"/>
<path fill="#E2E2E2" opacity="1.000000" stroke="none" 
	d="
M178.984634,315.094604 
	C179.443726,315.012360 179.723831,315.187286 179.952881,315.907104 
	C179.884918,316.667206 179.868011,316.882416 179.851105,317.097656 
	C179.516953,316.879242 179.182785,316.660828 178.685425,316.176575 
	C178.616730,315.724396 178.711197,315.538116 178.984634,315.094604 
z"/>
<path fill="#E2E2E2" opacity="1.000000" stroke="none" 
	d="
M180.025543,316.152649 
	C180.426895,316.029480 180.704575,316.205597 181.052155,316.627045 
	C180.922180,316.949585 180.722290,317.026764 180.199005,317.103729 
	C179.875610,317.103546 179.884232,317.045044 179.867676,317.071350 
	C179.868011,316.882416 179.884918,316.667206 180.025543,316.152649 
z"/>
<path fill="#E3E3E3" opacity="1.000000" stroke="none" 
	d="
M345.146484,316.757477 
	C345.326233,316.696869 345.444763,316.827087 345.733337,316.936920 
	C345.661163,316.784332 345.455597,316.618866 344.894470,316.638641 
	C344.538940,316.823883 344.623505,316.855011 344.617188,316.809357 
	C344.610901,316.763702 345.048676,316.981537 345.146484,316.757477 
z"/>
<path fill="#E2E2E2" opacity="1.000000" stroke="none" 
	d="
M184.012024,320.203369 
	C184.240585,320.387177 184.351822,320.899994 184.186768,321.321716 
	C183.905228,320.997894 183.899979,320.765106 184.012024,320.203369 
z"/>
<path fill="#E2E2E2" opacity="1.000000" stroke="none" 
	d="
M185.750000,322.750000 
	C185.466675,322.700012 185.433334,322.399994 185.399994,322.100006 
	C185.600006,322.233337 185.800003,322.366669 185.750000,322.750000 
z"/>
<path fill="#E2E2E2" opacity="1.000000" stroke="none" 
	d="
M199.207153,334.792755 
	C199.492050,334.964478 199.776932,335.136200 200.127991,335.557495 
	C200.046463,335.931641 199.898758,336.056213 199.513275,336.346680 
	C198.992554,336.315247 198.709595,336.117920 198.571777,335.536743 
	C198.880325,335.032837 199.043747,334.912811 199.207153,334.792755 
z"/>
<path fill="#E2E2E2" opacity="1.000000" stroke="none" 
	d="
M188.009552,324.161560 
	C188.209351,324.387268 188.271652,324.918182 188.053131,325.288910 
	C187.805542,324.908081 187.838806,324.687439 188.009552,324.161560 
z"/>
<path fill="#E2E2E2" opacity="1.000000" stroke="none" 
	d="
M190.538895,327.909119 
	C190.219650,327.426788 189.900406,326.944427 189.581161,326.462097 
	C189.965530,326.349640 190.349915,326.237183 190.773056,326.739990 
	C190.720840,327.539856 190.629868,327.724487 190.538895,327.909119 
z"/>
<path fill="#E3E3E3" opacity="1.000000" stroke="none" 
	d="
M334.720886,326.465546 
	C334.607758,326.003937 334.709747,325.854797 334.990967,325.683289 
	C335.312775,325.715973 335.510773,325.809021 335.984497,326.080109 
	C336.088318,326.541565 335.916473,326.825012 335.499207,327.181396 
	C335.129333,327.082886 335.004944,326.911499 334.720886,326.465546 
z"/>
<path fill="#E2E2E2" opacity="1.000000" stroke="none" 
	d="
M191.530228,328.879852 
	C191.181198,328.830872 190.927628,328.648895 190.654205,328.121521 
	C190.629868,327.724487 190.720840,327.539856 190.984375,327.099243 
	C191.443390,327.012756 191.729874,327.182281 191.910599,327.847595 
	C191.713318,328.522186 191.621765,328.701019 191.530228,328.879852 
z"/>
<path fill="#E2E2E2" opacity="1.000000" stroke="none" 
	d="
M192.542557,329.887299 
	C192.190842,329.820862 191.937698,329.626221 191.656677,329.091644 
	C191.621765,328.701019 191.713318,328.522186 191.977905,328.096619 
	C192.439209,328.013580 192.727478,328.177338 192.918854,328.838135 
	C192.728821,329.519257 192.635681,329.703278 192.542557,329.887299 
z"/>
<path fill="#E2E2E2" opacity="1.000000" stroke="none" 
	d="
M193.505905,330.819946 
	C193.177826,330.758667 192.935287,330.580780 192.660431,330.086792 
	C192.635681,329.703278 192.728821,329.519257 192.997772,329.080688 
	C193.461914,328.993439 193.750214,329.160736 193.924652,329.816284 
	C193.709152,330.476349 193.607529,330.648163 193.505905,330.819946 
z"/>
<path fill="#E3E3E3" opacity="1.000000" stroke="none" 
	d="
M332.976593,329.058350 
	C333.069946,329.525879 332.890808,329.803284 332.198914,329.979675 
	C331.494965,329.789032 331.303802,329.699432 331.112671,329.609833 
	C331.172607,329.251892 331.367706,328.997864 331.903992,328.709076 
	C332.307983,328.669739 332.506042,328.768982 332.976593,329.058350 
z"/>
<path fill="#E2E2E2" opacity="1.000000" stroke="none" 
	d="
M193.991867,330.066101 
	C194.457336,329.997955 194.741730,330.168213 194.925751,330.836548 
	C194.734650,331.516724 194.643921,331.698853 194.553177,331.880981 
	C194.293503,331.673218 194.033829,331.465454 193.640030,331.038818 
	C193.607529,330.648163 193.709152,330.476349 193.991867,330.066101 
z"/>
<path fill="#E3E3E3" opacity="1.000000" stroke="none" 
	d="
M331.952637,330.049744 
	C331.663208,330.187225 331.107330,330.153656 330.832031,329.864929 
	C331.303802,329.699432 331.494965,329.789032 331.952637,330.049744 
z"/>
<path fill="#E2E2E2" opacity="1.000000" stroke="none" 
	d="
M194.997742,331.082642 
	C195.459244,330.993774 195.748383,331.156860 195.929657,331.801910 
	C195.716309,332.454681 195.610840,332.625427 195.505386,332.796143 
	C195.187286,332.728180 194.950439,332.551392 194.673996,332.073395 
	C194.643921,331.698853 194.734650,331.516724 194.997742,331.082642 
z"/>
<path fill="#E2E2E2" opacity="1.000000" stroke="none" 
	d="
M196.006638,332.046326 
	C196.480789,331.973602 196.770065,332.138489 196.940552,332.790253 
	C196.714096,333.448303 196.606430,333.619507 196.498779,333.790680 
	C196.171982,333.696655 195.925705,333.501160 195.632660,333.000183 
	C195.610840,332.625427 195.716309,332.454681 196.006638,332.046326 
z"/>
<path fill="#E2E2E2" opacity="1.000000" stroke="none" 
	d="
M197.538239,334.808380 
	C197.194733,334.720306 196.938797,334.520203 196.634598,333.999390 
	C196.606430,333.619507 196.714096,333.448303 197.009827,333.039124 
	C197.485977,332.967621 197.774033,333.134155 197.954300,333.792236 
	C197.743744,334.458618 197.640991,334.633484 197.538239,334.808380 
z"/>
<path fill="#E3E3E3" opacity="1.000000" stroke="none" 
	d="
M327.259277,333.749512 
	C327.211670,333.367462 327.409454,333.235291 327.607239,333.103149 
	C327.573059,333.401886 327.538879,333.700653 327.259277,333.749512 
z"/>
<path fill="#E2E2E2" opacity="1.000000" stroke="none" 
	d="
M198.026794,334.038666 
	C198.493622,333.961517 198.780182,334.129456 199.136948,334.545044 
	C199.043747,334.912811 198.880325,335.032837 198.453873,335.305542 
	C197.974609,335.401276 197.801926,335.281494 197.605499,334.953674 
	C197.640991,334.633484 197.743744,334.458618 198.026794,334.038666 
z"/>
<path fill="#040404" opacity="1.000000" stroke="none" 
	d="
M305.387207,256.052917 
	C306.001862,253.722260 306.927429,251.252472 307.342926,250.143768 
	C307.342926,246.809357 306.513336,243.382034 307.499023,242.739502 
	C310.416046,240.837997 312.208252,243.113068 313.199585,246.368210 
	C310.751129,249.823288 308.224609,252.868546 305.387207,256.052917 
z"/>
<path fill="#040404" opacity="1.000000" stroke="none" 
	d="
M330.445923,224.202728 
	C330.418823,221.250229 330.695374,218.123383 330.983917,214.588333 
	C332.930847,214.041733 334.865723,213.903336 337.938873,213.683533 
	C335.155426,217.688705 332.952515,220.858536 330.445923,224.202728 
z"/>
<path fill="#040404" opacity="1.000000" stroke="none" 
	d="
M236.882660,285.126770 
	C240.031021,281.187195 240.098785,284.731171 240.837555,287.139221 
	C239.558899,286.827820 238.303711,286.106995 236.882660,285.126770 
z"/>
<path fill="#040404" opacity="1.000000" stroke="none" 
	d="
M321.039001,237.096649 
	C320.068634,236.673386 319.323914,236.071625 318.579224,235.469864 
	C319.825256,234.987473 321.071259,234.505066 322.716309,234.033386 
	C322.498474,235.002106 321.881592,235.960129 321.039001,237.096649 
z"/>
<path fill="#040404" opacity="1.000000" stroke="none" 
	d="
M349.582947,213.430481 
	C349.552643,213.684708 349.356934,213.726120 349.161224,213.767548 
	C349.246643,213.584259 349.332062,213.400970 349.582947,213.430481 
z"/>
<path fill="#000000" opacity="1.000000" stroke="none" 
	d="
M313.362488,229.099854 
	C312.369141,229.444885 311.414215,229.579010 311.222473,230.034470 
	C309.327942,234.533966 306.444916,238.014969 302.289124,240.754089 
	C300.128326,242.178299 298.987976,245.059631 297.045288,246.927734 
	C294.271240,249.595322 292.323212,252.395309 292.982605,256.475433 
	C293.534363,259.889709 292.088867,261.119019 288.549622,261.103546 
	C284.605743,261.086273 280.658356,261.873840 276.316711,262.354950 
	C275.697662,256.444275 281.581390,246.647430 268.574463,244.568893 
	C268.303741,240.517410 266.416168,237.562393 261.897003,236.924225 
	C261.323456,236.843231 260.367920,236.325546 260.344391,235.961365 
	C259.983063,230.372147 255.508957,229.546814 251.462982,228.452957 
	C252.103745,223.186813 253.926331,220.351913 259.944397,220.719559 
	C263.675262,220.947495 268.575439,220.305527 269.255463,214.497147 
	C269.324982,213.903397 271.004608,213.112457 271.962708,213.075394 
	C276.049500,212.917297 280.145935,213.008133 284.387054,213.008133 
	C286.420593,220.999680 286.420593,220.999786 295.557770,220.999954 
	C303.819519,221.000107 312.081268,221.000000 319.763733,221.000000 
	C318.893524,222.971893 317.983582,225.481110 316.668945,227.756516 
	C316.240814,228.497528 314.756439,228.628265 313.362488,229.099854 
z"/>
<path fill="#040404" opacity="1.000000" stroke="none" 
	d="
M263.717957,247.386948 
	C262.517670,247.109573 261.391693,246.446213 260.092590,245.505157 
	C260.593109,244.619553 261.266754,244.011612 261.940399,243.403687 
	C262.557678,244.602798 263.174957,245.801880 263.717957,247.386948 
z"/>
<path fill="#040404" opacity="1.000000" stroke="none" 
	d="
M240.873535,237.862274 
	C239.766327,238.112122 238.625656,237.980698 237.161835,237.729523 
	C238.172485,237.566864 239.506271,237.523941 240.873535,237.862274 
z"/>
<path fill="#040404" opacity="1.000000" stroke="none" 
	d="
M248.822617,240.200790 
	C247.622131,240.267548 246.444839,239.959854 245.031281,239.372375 
	C246.145279,239.337173 247.495544,239.581757 248.822617,240.200790 
z"/>
<path fill="#040404" opacity="1.000000" stroke="none" 
	d="
M272.956787,176.496170 
	C282.177856,167.845230 291.151031,159.358627 300.445221,151.239487 
	C303.494415,148.575806 307.376404,146.865494 311.072083,144.426422 
	C313.113770,143.527252 314.960907,142.920883 316.868439,142.294693 
	C317.919220,164.552444 278.429565,204.206375 248.634247,210.381653 
	C255.610733,197.908386 263.913696,187.140305 272.956787,176.496170 
z"/>
</svg>